<?xml version="1.0" standalone="no"?>
<!DOCTYPE svg PUBLIC "-//W3C//DTD SVG 20010904//EN"
 "http://www.w3.org/TR/2001/REC-SVG-20010904/DTD/svg10.dtd">
<svg version="1.0" xmlns="http://www.w3.org/2000/svg"
 width="1200.000000pt" height="900.000000pt" viewBox="0 0 1200.000000 900.000000"
 preserveAspectRatio="xMidYMid meet">

<g transform="translate(0.000000,900.000000) scale(0.100000,-0.100000)"
fill="#000000" stroke="none">
<path d="M3472 8963 c-2 -31 -6 -43 -17 -43 -11 0 -15 -12 -15 -51 0 -43 -4
-54 -25 -71 -13 -10 -31 -34 -40 -51 -8 -18 -26 -44 -39 -60 -26 -30 -41 -108
-30 -153 5 -20 11 -25 30 -21 13 2 25 -1 27 -7 3 -8 8 -7 18 2 7 6 23 12 36
12 13 0 23 6 23 14 0 7 11 21 25 30 14 9 25 25 25 36 0 10 6 23 13 27 25 16
49 65 43 89 -4 13 -11 24 -16 24 -6 0 -10 33 -9 78 1 48 4 68 8 52 l7 -25 6
24 c4 13 11 20 17 16 7 -3 11 2 11 14 0 12 7 21 15 21 9 0 15 9 15 24 0 13 7
26 15 30 37 14 11 26 -55 26 l-70 0 -2 -42 -1 -43 -7 45 -7 45 -1 -42z"/>
<path d="M10842 8954 c-23 -25 -42 -47 -42 -49 0 -5 -32 -42 -76 -89 -24 -25
-31 -39 -27 -59 3 -15 9 -24 14 -21 5 3 9 -1 9 -9 0 -7 6 -14 13 -15 6 -1 26
-4 44 -8 23 -4 37 -1 48 10 9 9 23 16 32 16 8 0 43 21 77 46 33 26 71 51 84
57 12 6 22 14 22 19 0 4 7 8 16 8 9 0 28 8 42 18 15 10 34 22 42 25 8 4 22 11
30 15 19 12 76 36 118 52 17 7 32 16 32 21 0 5 -98 9 -218 9 l-219 0 -41 -46z"/>
<path d="M3532 8820 c0 -14 2 -19 5 -12 2 6 2 18 0 25 -3 6 -5 1 -5 -13z"/>
<path d="M10688 8714 c-5 -4 -8 -19 -8 -33 0 -18 3 -22 11 -14 6 6 9 21 7 33
-1 12 -6 18 -10 14z"/>
<path d="M10515 8665 c-121 -27 -152 -37 -240 -81 -50 -24 -94 -44 -99 -44 -4
0 -41 -16 -82 -35 -40 -19 -79 -35 -86 -35 -8 0 -22 -6 -33 -13 -11 -8 -81
-33 -155 -56 -74 -23 -150 -49 -168 -57 -18 -8 -41 -14 -50 -14 -10 0 -22 -4
-27 -8 -6 -5 -30 -14 -55 -21 -25 -6 -61 -18 -80 -26 -92 -36 -154 -57 -255
-85 -133 -38 -422 -128 -450 -140 -39 -17 -140 -52 -160 -56 -21 -3 -91 -24
-190 -55 -33 -10 -87 -25 -120 -33 -33 -9 -91 -24 -130 -35 -38 -10 -104 -26
-145 -36 -41 -9 -86 -20 -100 -24 -14 -5 -45 -14 -70 -21 -25 -7 -54 -16 -65
-20 -11 -5 -42 -14 -70 -21 -27 -6 -57 -18 -65 -24 -8 -7 -28 -15 -44 -19 -16
-4 -48 -16 -70 -27 -22 -10 -45 -19 -51 -19 -7 0 -28 -11 -47 -23 -19 -13 -45
-27 -59 -30 -34 -9 -166 -94 -173 -112 -3 -8 -10 -15 -16 -15 -5 0 -20 -9 -32
-20 -13 -10 -43 -30 -68 -42 -25 -13 -54 -28 -65 -34 -11 -6 -45 -24 -75 -39
-30 -16 -57 -32 -60 -36 -13 -19 -319 -222 -365 -242 -22 -10 -47 -22 -57 -27
-25 -14 -188 -55 -330 -84 -70 -15 -133 -28 -140 -30 -7 -2 -38 -11 -68 -19
-30 -9 -75 -21 -100 -27 -135 -34 -374 -111 -420 -135 -16 -8 -38 -15 -50 -15
-11 0 -20 -4 -20 -9 0 -4 109 -11 243 -15 251 -7 296 -3 467 39 76 19 256 72
285 84 63 26 78 31 99 31 12 0 31 7 42 15 10 8 26 15 34 15 9 0 33 9 55 20 22
11 44 20 50 20 6 0 27 9 48 20 20 11 43 20 51 20 8 0 21 6 28 13 7 6 42 27 78
46 36 19 98 56 139 82 41 27 76 49 78 49 6 0 115 87 183 148 21 17 42 32 47
32 6 0 16 7 23 15 7 9 29 23 49 32 20 9 39 21 42 26 3 5 10 8 14 7 4 -1 22 12
40 29 18 17 38 31 44 31 6 0 11 4 11 9 0 12 113 81 133 81 9 0 20 6 24 14 10
16 124 48 363 100 157 35 180 41 180 48 0 5 15 8 33 8 56 0 287 60 467 120
115 38 223 72 355 112 39 11 79 24 90 29 11 4 36 11 55 14 19 4 62 16 95 27
69 23 90 29 200 57 44 12 89 25 100 30 11 5 64 19 118 32 54 12 100 26 103 31
3 4 15 8 26 8 27 0 178 43 243 70 26 10 108 35 117 35 3 0 10 3 14 8 4 4 13 7
21 7 15 0 94 34 133 56 14 8 58 31 98 50 39 20 72 39 72 44 0 4 18 15 40 24
22 9 40 20 40 26 0 5 18 28 40 50 31 31 40 48 40 75 0 35 0 35 -42 34 -24 -1
-70 -7 -103 -14z"/>
<path d="M3940 7636 c0 -2 7 -6 15 -10 8 -3 15 -1 15 4 0 6 -7 10 -15 10 -8 0
-15 -2 -15 -4z"/>
<path d="M2708 7078 c-46 -57 19 -216 74 -181 7 4 21 6 31 5 35 -6 47 17 47
90 0 97 -8 108 -78 108 -46 0 -60 -4 -74 -22z"/>
<path d="M2631 6934 c0 -11 3 -14 6 -6 3 7 2 16 -1 19 -3 4 -6 -2 -5 -13z"/>
<path d="M5270 6425 c-562 -46 -1102 -167 -1605 -360 -66 -25 -139 -55 -163
-66 -108 -49 -251 -61 -321 -26 -57 29 -59 27 -53 -77 3 -58 1 -96 -6 -100 -5
-3 -83 -13 -173 -21 -90 -9 -200 -20 -244 -25 -44 -5 -125 -14 -180 -20 -486
-50 -566 -69 -637 -149 -15 -17 -38 -33 -50 -35 -13 -3 -70 -15 -128 -27 -280
-56 -470 -160 -534 -292 l-25 -52 -7 -395 c-3 -217 -8 -398 -10 -401 -5 -8 38
-299 65 -439 12 -58 30 -159 41 -225 11 -66 24 -133 29 -150 5 -16 12 -60 16
-98 l7 -67 -31 -6 c-40 -8 -40 -22 0 -26 29 -3 33 -8 45 -53 15 -59 18 -169 5
-228 -12 -54 -25 -124 -50 -262 -11 -60 -29 -153 -40 -205 -69 -329 -76 -541
-26 -785 8 -38 19 -106 25 -150 72 -525 103 -689 135 -722 8 -8 15 -20 15 -26
0 -13 103 -117 116 -117 4 0 22 -14 40 -31 17 -17 49 -36 70 -44 42 -14 57
-42 27 -51 -43 -14 -65 -25 -59 -31 10 -10 77 -5 92 7 14 13 154 -1 279 -26
156 -32 465 -29 620 6 22 5 81 17 130 26 94 17 134 30 224 71 64 29 186 70
221 75 17 2 24 8 22 21 -2 9 2 17 8 17 5 0 10 -4 10 -10 0 -5 7 -10 15 -10 17
0 20 16 5 25 -31 19 -1 29 135 45 44 5 107 14 140 20 59 10 118 14 163 11 26
-1 29 -18 5 -24 -10 -3 1 -5 24 -6 52 -1 133 -35 133 -56 0 -8 5 -15 10 -15 6
0 10 -10 10 -22 0 -13 7 -36 15 -52 8 -15 15 -36 15 -46 0 -10 6 -23 14 -30 8
-6 13 -17 10 -24 -5 -12 31 -84 47 -96 4 -3 12 -23 18 -46 6 -22 20 -49 31
-59 11 -10 17 -22 14 -26 -3 -5 6 -19 19 -31 54 -51 75 -68 82 -68 7 0 90 -38
175 -80 30 -15 68 -30 83 -34 15 -4 31 -14 34 -24 4 -9 22 -38 40 -63 18 -26
42 -67 53 -93 l21 -46 169 0 c140 0 170 3 170 14 0 8 -3 16 -8 18 -4 2 -22 26
-40 55 -18 28 -40 57 -49 64 -8 7 -26 37 -38 66 -28 63 -22 99 21 127 25 17
94 134 94 159 0 5 7 15 15 23 16 17 21 79 6 89 -5 3 -13 20 -17 37 -3 18 -17
49 -30 69 -12 20 -27 55 -34 78 -6 22 -14 41 -19 41 -5 0 -18 23 -30 51 -23
56 -18 77 22 103 37 24 163 44 322 51 83 4 175 13 205 20 30 7 75 13 100 13
25 0 91 10 147 21 57 11 176 30 265 41 90 11 190 25 223 30 33 6 87 10 120 9
34 -1 79 4 100 10 22 5 92 15 155 21 63 6 131 15 150 20 19 5 67 11 105 14 39
3 90 11 115 17 25 6 83 13 130 15 47 2 107 9 134 16 28 6 57 12 65 13 9 1 23
4 31 7 54 22 84 28 90 18 4 -7 29 -9 66 -5 32 3 124 10 204 15 80 6 183 15
230 20 47 6 126 15 175 21 50 5 152 18 228 29 76 11 140 20 142 20 3 0 5 5 5
11 0 9 -22 10 -76 6 -42 -3 -73 -2 -68 3 12 11 124 40 195 51 31 5 78 13 104
19 26 6 82 10 124 10 42 -1 103 4 136 9 76 14 165 14 165 1 0 -5 -9 -10 -21
-10 -32 0 -122 -32 -110 -40 6 -3 39 -3 74 1 34 4 95 10 135 13 40 4 85 11 99
17 15 5 31 8 37 6 6 -2 31 -1 56 4 33 5 11 7 -80 7 -69 0 -132 0 -140 2 -21 3
76 29 133 36 27 3 57 13 68 22 65 56 219 58 384 5 39 -12 91 -15 240 -15 222
2 290 7 403 33 45 10 87 19 92 19 5 0 12 -17 16 -37 4 -21 20 -69 36 -107 18
-42 28 -80 26 -98 -3 -16 -1 -31 4 -34 4 -3 8 -15 8 -27 0 -25 29 -106 54
-152 9 -16 16 -36 16 -43 0 -7 18 -32 40 -54 22 -23 40 -47 40 -54 0 -6 11
-19 25 -28 14 -9 25 -23 25 -30 0 -20 103 -96 131 -96 30 0 65 28 73 57 5 17
-5 36 -46 85 -109 130 -121 147 -103 154 8 4 24 -1 34 -10 10 -9 22 -16 27
-16 22 -1 144 -93 144 -109 0 -6 7 -11 15 -11 9 0 35 -9 58 -20 46 -23 71 -21
143 11 40 18 58 39 34 39 -5 0 -10 9 -10 20 0 20 -27 42 -160 131 -41 27 -91
61 -110 75 -19 14 -46 33 -59 42 -64 46 -173 137 -178 149 -3 7 -2 21 3 31 4
9 6 23 5 30 -1 6 10 27 24 46 14 18 25 38 25 44 0 13 90 69 124 78 28 7 75
-18 114 -60 12 -13 40 -34 63 -45 22 -12 46 -26 52 -31 28 -23 154 -83 225
-106 42 -14 86 -31 97 -38 11 -7 39 -16 61 -19 23 -4 54 -14 70 -22 16 -8 38
-15 49 -15 10 0 64 -11 120 -24 55 -14 127 -30 159 -36 41 -8 55 -15 45 -21
-9 -6 6 -9 42 -9 31 0 101 -11 157 -25 56 -14 104 -25 107 -25 3 0 5 54 5 120
0 113 -1 120 -20 120 -25 0 -420 79 -432 86 -5 3 -37 10 -71 15 -130 18 -495
133 -533 167 -11 9 -41 28 -66 41 -26 13 -55 32 -64 43 -17 18 -17 20 11 43
17 13 55 36 85 52 63 31 163 93 200 123 14 12 54 43 90 70 36 27 91 73 122
101 32 29 71 60 88 70 16 10 30 23 30 27 0 5 18 15 41 22 23 8 48 24 57 37 9
14 24 23 36 22 39 -3 47 1 44 18 -2 14 3 17 20 15 15 -2 22 2 22 13 0 9 9 19
20 22 12 3 20 14 21 29 3 45 4 49 17 48 6 -1 19 -2 27 -2 8 -1 15 -9 15 -17 0
-8 7 -15 15 -15 8 0 15 -5 15 -11 0 -6 -6 -9 -14 -6 -8 3 -22 -3 -32 -14 -16
-18 -16 -19 4 -19 12 0 30 -10 41 -22 17 -17 23 -19 36 -8 19 16 20 67 1 85
-7 8 -25 17 -40 21 -14 3 -26 10 -26 15 0 5 -7 9 -15 9 -27 0 -28 45 -1 86 13
22 28 50 31 64 3 14 15 36 25 50 17 23 27 25 109 28 l91 4 0 45 0 46 -68 -7
c-82 -8 -102 -2 -102 31 0 53 14 63 95 63 l75 0 0 75 0 75 -82 0 c-46 0 -88 4
-94 8 -6 4 -14 25 -18 47 -8 45 -39 161 -67 249 -20 63 -25 126 -10 126 5 0
23 -14 41 -30 61 -57 47 -14 -19 59 -40 45 -42 99 -5 148 14 18 32 33 40 33 7
0 14 4 14 9 0 5 13 12 29 16 16 3 32 12 34 19 3 8 35 19 71 26 l66 12 0 89 c0
49 -4 89 -8 89 -8 0 -67 -16 -157 -42 -86 -25 -171 -76 -224 -134 -63 -69 -70
-84 -72 -166 -2 -96 23 -229 72 -373 21 -61 48 -169 44 -176 -3 -3 -39 -12
-82 -18 -192 -30 -353 -81 -499 -157 -136 -71 -227 -138 -346 -254 l-93 -91
-3 35 c-2 19 6 86 17 148 15 86 19 150 18 268 -2 150 -3 157 -32 215 -38 78
-121 159 -272 264 l-120 83 -11 61 c-14 76 -52 151 -104 208 -64 71 -369 396
-538 574 -47 50 -139 148 -204 218 -65 70 -155 165 -198 210 -44 45 -109 114
-145 152 -89 94 -244 256 -436 455 -368 382 -352 367 -448 418 -116 62 -305
114 -459 126 -41 3 -196 8 -345 12 -148 3 -272 8 -274 10 -3 2 -4 59 -2 126
l2 121 -23 -7 c-63 -18 -116 -17 -193 2 -120 31 -393 82 -437 82 -21 0 -46 4
-56 10 -68 37 -791 61 -1102 35z m-97 -202 c-7 -2 -19 -2 -25 0 -7 3 -2 5 12
5 14 0 19 -2 13 -5z m-147 -24 c18 -15 18 -29 0 -29 -8 0 -16 -7 -20 -15 -7
-19 -55 -10 -73 14 -10 13 -14 14 -22 2 -6 -9 -36 -14 -99 -15 -84 -2 -94 -4
-134 -33 -58 -41 -79 -46 -128 -29 -34 11 -42 12 -46 1 -4 -9 -18 -11 -47 -8
-58 8 -67 20 -21 31 22 6 53 13 69 18 17 4 40 9 51 10 12 1 39 7 60 13 22 5
64 13 94 16 30 4 80 13 112 19 83 17 187 20 204 5z m125 -68 c31 -26 19 -48
-44 -79 -26 -12 -47 -27 -47 -32 0 -6 -4 -10 -10 -10 -6 0 -10 29 -10 68 l0
69 44 1 c30 2 51 -4 67 -17z m964 -9 c-25 -5 -56 -32 -50 -43 3 -4 -1 -11 -8
-16 -8 -4 -19 -17 -26 -28 -11 -18 -12 -16 -8 13 2 22 -1 36 -10 39 -19 7 -16
23 5 23 9 0 35 7 57 14 22 8 44 11 50 8 5 -4 1 -8 -10 -10z m-1731 -37 c-4 -8
-10 -12 -16 -9 -25 16 -85 -79 -73 -117 4 -10 2 -19 -3 -19 -13 0 -13 93 1
110 33 41 103 68 91 35z m431 -5 c-3 -5 -10 -10 -16 -10 -5 0 -9 5 -9 10 0 6
7 10 16 10 8 0 12 -4 9 -10z m1299 -39 c-22 -37 -34 -40 -34 -8 0 13 9 26 23
33 30 14 32 10 11 -25z m-554 6 c0 -7 -13 -20 -29 -30 -23 -13 -35 -15 -56 -7
-18 7 -33 7 -45 0 -21 -11 -50 -13 -150 -11 -44 1 -60 4 -50 11 8 5 46 8 85 8
110 -1 125 1 125 17 0 19 5 19 34 0 21 -14 25 -14 47 4 28 24 39 26 39 8z
m-1141 -13 c3 -4 0 -9 -6 -11 -27 -10 -11 -20 31 -21 54 0 66 -7 67 -35 l0
-22 9 23 c11 27 40 29 40 2 0 -13 5 -18 15 -14 19 8 19 0 -1 -54 -17 -43 -42
-53 -36 -14 2 12 -2 22 -8 22 -7 0 -10 -7 -6 -15 3 -8 1 -15 -4 -15 -6 0 -10
-6 -10 -14 0 -19 -52 -24 -102 -11 -21 5 -38 15 -38 22 0 8 -7 16 -16 20 -15
5 -15 7 0 15 20 11 21 48 1 48 -8 0 -15 -4 -15 -10 0 -5 -4 -10 -8 -10 -5 0
-9 7 -9 15 0 8 6 15 14 15 7 0 13 5 13 10 0 6 9 10 21 10 14 0 19 5 17 18 -2
12 -11 16 -31 14 -27 -3 -38 12 -14 21 16 6 67 0 76 -9z m1201 -9 c10 -12 10
-15 -4 -15 -9 0 -16 7 -16 15 0 8 2 15 4 15 2 0 9 -7 16 -15z m450 1 c0 -17
-14 -29 -23 -20 -8 8 3 34 14 34 5 0 9 -6 9 -14z m-891 -14 c8 -15 4 -17 -30
-17 -42 0 -55 21 -16 28 12 2 25 5 29 6 4 0 12 -7 17 -17z m-339 -37 c0 -3 -6
-5 -12 -4 -7 1 -20 0 -28 -4 -49 -18 -77 -23 -95 -16 -16 6 -16 8 -3 8 21 1
98 42 98 53 0 4 9 -1 20 -12 11 -11 20 -22 20 -25z m135 6 c-6 -6 -31 -16 -57
-22 -37 -10 -51 -10 -60 -1 -9 9 -7 12 13 12 13 0 31 5 39 10 20 13 77 13 65
1z m120 0 c8 -13 -60 -25 -82 -15 -14 6 -9 9 22 14 22 4 43 8 47 9 4 0 9 -3
13 -8z m201 -22 c36 -9 44 -16 44 -34 0 -13 2 -30 6 -38 3 -9 -7 -20 -30 -31
-43 -20 -39 -35 17 -61 29 -13 37 -21 25 -23 -10 -2 -18 -8 -18 -13 0 -19 -33
-8 -74 26 -24 19 -48 35 -55 35 -6 0 -11 -15 -11 -35 0 -32 -2 -35 -31 -35
-23 0 -30 4 -25 15 3 8 6 55 7 104 l1 90 32 4 c59 7 67 7 112 -4z m91 -66 c-3
-10 -5 -4 -5 12 0 17 2 24 5 18 2 -7 2 -21 0 -30z m283 -17 c0 -11 -19 -15
-25 -6 -3 5 1 10 9 10 9 0 16 -2 16 -4z m-284 -53 c-10 -10 -19 5 -10 18 6 11
8 11 12 0 2 -7 1 -15 -2 -18z m458 -35 c-3 -4 -14 -8 -24 -8 -29 0 -88 -31
-95 -49 -3 -9 -14 -31 -24 -49 -15 -26 -21 -30 -30 -18 -10 11 -7 17 10 29 11
9 18 20 15 25 -3 5 1 15 9 22 8 7 15 19 15 27 0 10 7 14 19 10 11 -3 22 1 25
9 7 18 69 34 78 20 4 -5 4 -14 2 -18z m118 -20 c15 -17 25 -34 22 -39 -3 -5 2
-12 10 -15 9 -3 13 -10 10 -15 -8 -14 -34 -11 -34 4 0 22 -69 87 -85 81 -9 -4
-15 0 -15 10 0 25 61 8 92 -26z m-1223 -11 c-8 -7 -21 -26 -29 -43 -10 -23
-19 -30 -35 -26 -19 3 -17 7 23 48 24 25 47 42 51 39 3 -4 -1 -12 -10 -18z
m1157 -3 c41 -19 43 -30 8 -38 -18 -5 -30 -2 -38 9 -12 16 -33 12 -76 -14 -8
-5 -22 -12 -30 -14 -11 -3 -17 -19 -18 -47 -3 -48 10 -70 38 -63 11 3 20 1 20
-5 0 -20 41 -21 61 -1 20 20 54 14 54 -10 0 -8 6 -16 12 -18 16 -6 30 26 16
36 -15 10 -10 104 6 109 11 4 13 -3 8 -32 -5 -31 -3 -36 13 -36 10 0 21 -4 25
-10 7 -11 -14 -50 -37 -68 -9 -7 -23 -18 -30 -25 -8 -6 -24 -18 -36 -25 -22
-12 -27 -8 -23 24 1 7 -21 13 -54 16 -44 4 -60 10 -81 33 -23 25 -25 34 -20
74 4 36 13 53 42 78 20 17 48 34 63 36 14 2 30 5 34 6 5 0 24 -6 43 -15z
m-613 -29 c27 -25 35 -45 19 -45 -9 0 -44 36 -56 58 -12 20 8 14 37 -13z m306
6 c19 -17 20 -19 5 -25 -20 -8 -19 -8 -28 22 -9 27 -5 27 23 3z m-604 -21 c3
-5 3 -10 -2 -11 -72 -5 -88 -8 -91 -17 -2 -6 -19 -14 -38 -18 -19 -3 -37 -10
-40 -15 -7 -12 -44 -11 -44 1 0 6 6 10 13 10 8 0 38 13 68 30 54 30 122 40
134 20z m555 0 c0 -5 -8 -10 -17 -10 -15 0 -16 2 -3 10 19 12 20 12 20 0z
m-325 -10 c-3 -5 -17 -10 -31 -10 -14 0 -22 4 -19 10 3 6 17 10 31 10 14 0 22
-4 19 -10z m230 0 c-3 -5 -10 -10 -16 -10 -5 0 -9 5 -9 10 0 6 7 10 16 10 8 0
12 -4 9 -10z m-675 -4 c0 -11 -19 -15 -25 -6 -3 5 1 10 9 10 9 0 16 -2 16 -4z
m-101 -41 c-1 -17 -18 -51 -18 -37 -1 17 -21 15 -21 -3 0 -10 -10 -15 -31 -15
-17 0 -28 4 -24 10 3 6 12 10 20 10 7 0 19 16 25 35 10 31 13 33 31 22 10 -6
19 -16 18 -22z m476 15 c3 -5 -1 -10 -9 -10 -9 0 -16 5 -16 10 0 6 4 10 9 10
6 0 13 -4 16 -10z m-95 -62 c26 -24 26 -60 -2 -84 -21 -19 -21 -19 -14 1 9 23
9 23 7 53 0 13 -7 22 -13 21 -7 -1 -22 2 -32 6 -15 6 -25 2 -43 -19 -16 -19
-23 -22 -23 -12 0 48 80 71 120 34z m-490 -10 c0 -4 -22 -8 -50 -8 -27 0 -50
4 -50 9 0 6 23 9 50 9 28 -1 50 -5 50 -10z m1134 6 c9 -3 16 -12 16 -19 0 -7
9 -24 20 -38 15 -19 32 -27 63 -29 46 -3 53 -22 10 -25 -54 -4 -153 68 -140
101 7 18 9 18 31 10z m-685 -40 c12 8 14 -4 5 -27 -5 -13 -9 -13 -36 1 -29 14
-30 16 -13 29 14 9 21 10 26 2 4 -6 12 -8 18 -5z m305 -46 c-8 -12 -34 11 -34
30 0 13 3 12 20 -3 11 -10 17 -22 14 -27z m-512 -28 c-12 -11 -17 -15 -12 -8
6 7 10 21 10 32 0 16 3 17 12 8 10 -10 7 -17 -10 -32z m52 -59 c-5 -31 -3 -39
12 -45 21 -8 44 16 44 46 0 10 2 18 5 18 3 0 54 -21 63 -26 1 -1 -3 -14 -10
-29 -11 -25 -10 -29 12 -47 24 -19 24 -20 5 -34 -25 -18 -51 -18 -59 1 -8 23
-26 18 -26 -8 0 -44 -33 -58 -83 -34 -27 12 -37 49 -18 62 5 3 10 18 10 33 0
35 7 65 21 92 17 31 31 14 24 -29z m-214 10 l31 -19 -31 -10 c-20 -8 -35 -23
-45 -44 -11 -27 -19 -33 -40 -33 -55 3 -63 71 -12 104 40 26 58 26 97 2z
m1090 -10 c0 -6 -10 -17 -22 -26 -26 -17 -37 -3 -18 20 14 17 40 20 40 6z
m-684 -73 c-8 -11 -12 -28 -9 -37 5 -14 3 -13 -13 2 -17 16 -17 19 -3 30 9 7
14 18 12 25 -3 7 1 10 11 6 14 -5 14 -9 2 -26z m478 26 c20 -8 21 -24 1 -24
-8 0 -15 -7 -15 -15 0 -8 7 -15 15 -15 8 0 15 -6 15 -14 0 -7 6 -19 14 -25 11
-10 16 -8 21 8 7 23 25 27 43 9 17 -17 28 18 12 37 -7 9 -10 19 -6 22 4 4 11
1 15 -6 7 -10 24 -12 71 -6 35 4 80 7 102 7 28 -1 38 3 38 15 0 13 3 13 15 3
11 -9 33 -11 74 -6 33 4 62 3 65 -2 3 -5 5 -28 5 -53 1 -24 1 -69 2 -99 0 -30
-3 -75 -6 -101 l-6 -46 -157 -12 c-86 -7 -164 -17 -174 -22 -9 -5 -19 -9 -22
-9 -3 0 -6 37 -8 83 -3 79 -3 81 -17 52 -14 -28 -15 -29 -18 -7 -6 31 -35 29
-31 -3 2 -15 -4 -29 -16 -38 -24 -17 -15 -47 14 -47 23 0 25 -7 6 -29 -9 -12
-11 -25 -4 -48 10 -38 20 -41 46 -13 18 19 22 20 78 7 38 -9 59 -19 59 -28 0
-11 -47 -20 -205 -41 -113 -15 -223 -28 -245 -29 -51 -2 -237 11 -249 19 -5 3
3 11 17 18 18 10 24 19 20 34 -4 15 0 20 13 21 77 4 110 3 117 -6 4 -6 10 -5
16 3 6 10 10 9 14 -8 5 -20 7 -21 30 -5 21 13 26 13 36 1 11 -13 51 -11 51 3
0 9 -38 41 -49 41 -5 0 -12 17 -16 37 -4 21 -12 41 -18 45 -14 8 9 38 29 38
20 0 17 27 -6 59 -19 27 -23 91 -7 107 4 4 7 15 7 25 0 22 31 34 45 17 14 -19
100 -17 100 2 0 8 -11 17 -25 21 l-25 6 25 11 c28 12 71 15 94 6z m-344 -14
c0 -5 -5 -10 -12 -10 -6 0 -22 -10 -35 -22 -26 -25 -31 -13 -7 20 15 22 54 31
54 12z m120 -7 c-1 -35 -54 -57 -108 -44 -1 1 2 10 8 21 6 11 20 20 30 20 11
0 20 5 20 10 0 6 11 10 25 10 17 0 25 -5 25 -17z m-130 -50 c0 -13 -33 -43
-48 -43 -12 0 -10 6 8 25 23 24 40 32 40 18z m10 -64 c0 -5 -4 -9 -10 -9 -5 0
-10 7 -10 16 0 8 5 12 10 9 6 -3 10 -10 10 -16z m-245 -59 c-3 -5 -14 -10 -23
-9 -14 0 -13 2 3 9 27 11 27 11 20 0z m335 -16 c0 -16 -16 -19 -25 -4 -8 13 4
32 16 25 5 -4 9 -13 9 -21z m-66 -31 c3 -7 1 -13 -4 -13 -13 0 -50 37 -50 50
0 13 47 -20 54 -37z m-518 -40 c-10 -10 -19 5 -10 18 6 11 8 11 12 0 2 -7 1
-15 -2 -18z m1414 -39 c0 -8 -4 -14 -9 -14 -11 0 -22 26 -14 34 9 9 23 -3 23
-20z m-1170 -10 c0 -8 -8 -14 -18 -14 -25 0 -34 11 -21 26 13 15 39 7 39 -12z
m352 -2 c10 -17 13 -33 8 -41 -9 -16 -30 -6 -30 14 0 7 -7 16 -16 19 -13 5
-14 9 -4 21 17 21 23 19 42 -13z m-265 -37 c18 -13 22 -24 19 -63 l-2 -47 -53
0 c-44 0 -55 3 -61 19 -6 17 -7 17 -13 3 -4 -12 -18 -17 -42 -17 -45 0 -44 11
4 43 22 15 42 35 46 46 5 18 23 26 65 30 9 0 25 -6 37 -14z m-637 -1985 c0 -5
-4 -10 -10 -10 -5 0 -10 5 -10 10 0 6 5 10 10 10 6 0 10 -4 10 -10z m-175 -70
c-3 -5 -16 -10 -28 -9 -21 0 -21 1 -2 9 28 12 37 12 30 0z m-65 -18 c0 -9 -68
-32 -91 -31 -8 0 6 9 31 19 52 22 60 23 60 12z m7490 3 c0 -8 -32 -58 -45 -70
-38 -36 -61 -46 -154 -64 -169 -34 -415 -129 -549 -213 -18 -11 -35 -18 -38
-15 -7 7 89 100 134 130 20 13 62 40 92 60 106 71 252 123 460 166 53 10 100
13 100 6z m-7615 -55 c-44 -11 -67 -11 -60 0 3 6 25 9 48 9 40 -1 40 -2 12 -9z
m-95 -29 c-8 -5 -31 -11 -50 -14 -35 -6 -35 -6 -10 8 14 8 36 14 50 14 19 0
21 -2 10 -8z m5565 -20 c92 -25 104 -29 70 -31 -133 -6 -249 22 -205 50 19 12
8 14 135 -19z m-690 -13 c60 -23 135 -95 135 -129 0 -25 -9 -24 -37 3 -20 18
-26 20 -33 9 -7 -12 -16 -12 -55 4 -68 25 -167 14 -265 -31 -41 -19 -78 -41
-83 -49 -4 -8 -13 -15 -20 -15 -15 -1 -82 -87 -91 -117 -4 -13 -20 -30 -36
-39 -15 -10 -27 -22 -26 -28 2 -6 1 -8 -1 -3 -3 4 -11 7 -19 7 -18 0 -18 33 2
101 65 220 329 364 529 287z m-5000 2 c-3 -5 -13 -10 -21 -10 -8 0 -14 5 -14
10 0 6 9 10 21 10 11 0 17 -4 14 -10z m7615 -119 c0 -5 -39 -40 -87 -78 -49
-37 -119 -98 -158 -134 -38 -37 -90 -84 -115 -105 -25 -22 -61 -54 -80 -72
-19 -18 -40 -32 -47 -32 -7 0 -13 -4 -13 -10 0 -5 -7 -10 -16 -10 -15 0 -15 2
0 25 20 30 20 45 1 45 -8 0 -15 5 -15 11 0 5 -4 8 -9 5 -4 -3 -6 5 -4 18 3 13
0 27 -6 30 -19 12 -12 45 11 57 12 7 36 25 53 40 16 16 34 29 39 29 6 0 26 11
46 25 41 28 159 80 295 130 104 38 105 38 105 26z m-3603 -33 c78 -30 189
-142 123 -125 -10 3 -21 0 -23 -7 -3 -8 -7 -8 -18 1 -8 6 -16 11 -19 11 -3 0
-38 5 -79 12 -58 11 -85 11 -132 1 -92 -19 -172 -61 -230 -121 -14 -15 -30
-29 -35 -31 -6 -2 -29 -42 -52 -88 -29 -56 -44 -78 -48 -67 -3 9 -12 16 -20
16 -34 0 -7 130 44 210 39 62 48 72 117 125 58 44 80 54 160 70 91 19 147 17
212 -7z m-5384 -55 c-13 -2 -33 -2 -45 0 -13 2 -3 4 22 4 25 0 35 -2 23 -4z
m9047 -103 c-20 -13 -33 -13 -25 0 3 6 14 10 23 10 15 0 15 -2 2 -10z m-45
-40 c-3 -5 -13 -10 -20 -10 -8 0 -21 -13 -30 -30 -9 -18 -23 -30 -35 -30 -13
0 -20 -7 -20 -18 0 -19 -61 -82 -79 -82 -6 0 -11 -4 -11 -10 0 -18 -88 -90
-110 -90 -5 0 -10 -4 -10 -10 0 -5 -6 -10 -14 -10 -8 0 -16 -7 -20 -15 -3 -8
-10 -15 -16 -15 -5 0 -19 -8 -29 -17 -38 -35 -51 -44 -51 -35 0 4 26 31 58 59
31 28 82 75 113 105 56 52 111 102 199 179 39 35 91 55 75 29z m-2625 -80 c0
-5 -4 -10 -10 -10 -5 0 -10 5 -10 10 0 6 5 10 10 10 6 0 10 -4 10 -10z m-135
-10 c-3 -5 -14 -10 -23 -9 -14 0 -13 2 3 9 27 11 27 11 20 0z m-3542 -25 c20
-8 50 -28 69 -45 27 -25 30 -32 18 -40 -10 -6 -11 -10 -2 -10 6 0 12 -7 12
-15 0 -19 -16 -20 -23 -2 -9 24 -204 29 -282 7 -72 -19 -157 -64 -200 -105
-21 -19 -41 -35 -44 -35 -3 -1 -22 -21 -41 -45 -19 -25 -39 -43 -45 -41 -5 2
-9 24 -8 49 1 56 37 119 101 181 65 63 87 78 162 104 56 20 78 22 157 17 50
-3 107 -12 126 -20z m3797 -3 c0 -57 -69 -94 -205 -107 -33 -3 -99 -13 -147
-20 -58 -10 -101 -12 -133 -6 -91 17 -72 35 52 50 379 46 364 43 397 78 17 17
32 32 34 32 1 1 2 -12 2 -27z m-395 8 c-3 -5 -11 -10 -16 -10 -6 0 -7 5 -4 10
3 6 11 10 16 10 6 0 7 -4 4 -10z m-4500 -99 c17 -7 39 -21 50 -31 11 -10 29
-20 39 -22 11 -2 32 -29 53 -68 19 -36 43 -72 53 -82 11 -9 20 -19 20 -21 0
-3 14 -21 30 -39 32 -35 230 -423 230 -450 0 -49 -53 -88 -119 -88 -56 0 -59
-24 -9 -74 26 -27 41 -75 18 -61 -6 4 -19 3 -28 -1 -9 -4 -46 -8 -82 -8 -101
-2 -209 -47 -277 -115 l-53 -54 -25 27 c-14 15 -25 38 -25 52 0 24 39 96 60
109 5 3 10 17 10 31 0 20 -5 24 -30 24 -17 0 -38 -4 -48 -10 -9 -5 -29 -14
-44 -20 -18 -6 -28 -17 -28 -30 0 -11 -5 -20 -11 -20 -6 0 -19 -10 -30 -22
-18 -23 -19 -23 -23 17 -1 6 -9 21 -19 35 -9 13 -17 40 -17 60 0 20 -7 45 -15
57 -8 12 -12 29 -8 39 4 10 0 21 -9 28 -18 14 -47 71 -53 106 -2 14 -14 52
-25 84 -11 33 -20 72 -20 88 0 22 -5 28 -21 28 -13 0 -23 10 -31 31 -8 23 -15
29 -29 26 -25 -7 -30 3 -31 60 -1 35 7 64 30 108 31 60 83 125 100 125 6 0 12
6 15 13 5 11 40 31 127 70 42 20 226 18 275 -2z m3918 -57 c3 -4 0 -19 -9 -35
-23 -45 -75 -62 -298 -93 -121 -18 -191 -19 -217 -6 -41 23 -1 39 136 55 299
35 331 41 356 71 12 15 22 18 32 8z m-5778 -294 c-8 -13 -105 -13 -125 0 -10
7 7 10 58 10 46 0 71 -4 67 -10z m3089 -68 c-15 -24 -51 -40 -109 -47 -28 -3
-61 -10 -75 -15 -51 -17 -88 -22 -200 -26 -92 -4 -120 -1 -135 11 -15 11 -17
17 -7 23 7 5 92 16 190 26 245 24 253 25 292 46 39 21 62 12 44 -18z m1096
-12 c-22 -12 -150 -28 -156 -19 -5 9 72 24 146 27 19 1 21 -1 10 -8z"/>
<path d="M4970 6170 c0 -5 5 -10 10 -10 6 0 10 5 10 10 0 6 -4 10 -10 10 -5 0
-10 -4 -10 -10z"/>
<path d="M5064 6105 c-9 -23 3 -45 24 -45 17 0 62 38 62 53 0 15 -81 7 -86 -8z"/>
<path d="M4415 5950 c-4 -6 5 -10 20 -10 15 0 24 4 20 10 -3 6 -12 10 -20 10
-8 0 -17 -4 -20 -10z"/>
<path d="M5203 5901 c0 -25 7 -47 17 -56 15 -13 20 -11 48 18 32 33 36 62 9
65 -7 1 -26 4 -43 8 -32 6 -32 6 -31 -35z"/>
<path d="M5955 5600 c3 -5 8 -10 11 -10 2 0 4 5 4 10 0 6 -5 10 -11 10 -5 0
-7 -4 -4 -10z"/>
<path d="M5880 5550 c0 -5 9 -10 21 -10 11 0 17 5 14 10 -3 6 -13 10 -21 10
-8 0 -14 -4 -14 -10z"/>
<path d="M4888 5353 c7 -3 16 -2 19 1 4 3 -2 6 -13 5 -11 0 -14 -3 -6 -6z"/>
<path d="M4850 5279 c0 -5 5 -7 10 -4 6 3 10 8 10 11 0 2 -4 4 -10 4 -5 0 -10
-5 -10 -11z"/>
<path d="M5959 5356 c-4 -3 -33 -6 -212 -22 -75 -7 -99 -17 -81 -34 5 -5 67
-4 138 2 97 8 138 16 163 30 18 11 33 22 33 24 0 5 -35 5 -41 0z"/>
<path d="M5330 5320 c0 -5 5 -10 10 -10 6 0 10 5 10 10 0 6 -4 10 -10 10 -5 0
-10 -4 -10 -10z"/>
<path d="M5790 5260 c-6 -11 -16 -20 -23 -19 -45 6 -48 1 -45 -63 3 -62 4 -63
33 -66 17 -2 34 -8 40 -13 18 -18 62 -10 68 12 3 12 10 18 17 14 6 -4 22 -4
36 -1 22 6 24 11 24 72 l0 66 -35 -6 c-27 -5 -37 -3 -41 9 -9 23 -61 19 -74
-5z"/>
<path d="M5522 5168 c5 -32 28 -35 28 -4 0 17 -5 26 -16 26 -10 0 -14 -7 -12
-22z"/>
<path d="M5410 5165 c0 -9 5 -15 11 -13 6 2 11 8 11 13 0 5 -5 11 -11 13 -6 2
-11 -4 -11 -13z"/>
<path d="M5367 5163 c-4 -3 -7 -15 -7 -25 0 -26 24 -17 28 10 3 21 -8 29 -21
15z"/>
<path d="M5380 5100 c0 -5 5 -10 10 -10 6 0 10 5 10 10 0 6 -4 10 -10 10 -5 0
-10 -4 -10 -10z"/>
<path d="M5515 5020 c4 -6 11 -8 16 -5 14 9 11 15 -7 15 -8 0 -12 -5 -9 -10z"/>
<path d="M5230 4931 c0 -11 26 -22 34 -14 3 3 3 10 0 14 -7 12 -34 11 -34 0z"/>
<path d="M11867 3414 c-10 -10 12 -44 28 -44 18 0 20 21 3 38 -13 13 -22 15
-31 6z"/>
<path d="M11940 3332 c0 -12 19 -26 26 -19 2 2 -2 10 -11 17 -9 8 -15 8 -15 2z"/>
<path d="M290 3290 c-12 -8 -11 -10 8 -10 12 0 22 5 22 10 0 13 -11 13 -30 0z"/>
<path d="M11980 3286 c0 -8 5 -18 10 -21 6 -3 10 3 10 14 0 12 -4 21 -10 21
-5 0 -10 -6 -10 -14z"/>
<path d="M195 3280 c-3 -5 3 -10 14 -10 12 0 21 5 21 10 0 6 -6 10 -14 10 -8
0 -18 -4 -21 -10z"/>
<path d="M37 3259 c8 -8 19 -8 40 -1 28 10 28 10 -11 11 -29 1 -37 -2 -29 -10z"/>
<path d="M11660 2360 c0 -5 4 -10 9 -10 6 0 13 5 16 10 3 6 -1 10 -9 10 -9 0
-16 -4 -16 -10z"/>
<path d="M11810 1877 c-111 -14 -137 -27 -45 -22 79 4 138 17 119 26 -5 3 -38
1 -74 -4z"/>
<path d="M11940 1880 c0 -13 30 -13 50 0 11 7 7 10 -17 10 -18 0 -33 -4 -33
-10z"/>
<path d="M11555 1844 c-105 -19 -115 -24 -35 -19 101 7 160 17 154 26 -7 11
-21 10 -119 -7z"/>
<path d="M11178 1803 c-26 -2 -60 -11 -75 -19 l-28 -16 30 7 c17 3 57 9 90 12
57 5 108 25 55 21 -14 -1 -46 -3 -72 -5z"/>
<path d="M11420 706 c-80 -23 -97 -34 -129 -81 -17 -25 -31 -49 -31 -53 -1 -4
-15 -23 -33 -44 -25 -29 -45 -40 -95 -52 -35 -9 -75 -16 -88 -16 -37 0 -100
-47 -120 -88 -22 -46 -35 -104 -36 -162 -1 -95 20 -130 109 -180 l53 -30 475
0 475 0 0 240 c0 259 3 246 -50 242 -32 -2 -103 20 -133 41 -39 27 -45 35 -53
67 -7 29 -50 78 -79 91 -11 6 -31 16 -45 24 -31 18 -157 19 -220 1z"/>
<path d="M1343 653 c-7 -2 -13 -9 -13 -14 0 -14 26 -10 40 6 10 12 10 15 -1
14 -8 0 -20 -3 -26 -6z"/>
</g>
</svg>
