<?xml version="1.0" standalone="no"?>
<!DOCTYPE svg PUBLIC "-//W3C//DTD SVG 20010904//EN"
 "http://www.w3.org/TR/2001/REC-SVG-20010904/DTD/svg10.dtd">
<svg version="1.0" xmlns="http://www.w3.org/2000/svg"
 width="661.000000pt" height="658.000000pt" viewBox="0 0 661.000000 658.000000"
 preserveAspectRatio="xMidYMid meet">

<g transform="translate(0.000000,658.000000) scale(0.100000,-0.100000)"
fill="#000000" stroke="none">
<path d="M4997 6574 c-9 -9 12 -46 23 -39 5 3 13 -3 19 -12 5 -10 13 -14 17
-10 4 4 2 13 -4 19 -18 18 -14 27 8 21 11 -3 20 0 20 6 0 6 8 11 17 11 9 0 14
3 11 6 -4 3 -23 1 -45 -5 -25 -7 -39 -7 -41 -1 -4 11 -16 13 -25 4z"/>
<path d="M5126 6569 c3 -5 -6 -13 -19 -18 -35 -14 -41 -56 -11 -76 14 -9 34
-13 48 -9 14 3 33 1 43 -5 16 -9 15 -10 -7 -11 -15 0 -31 -5 -36 -10 -8 -8
-21 -5 -43 7 -31 17 -32 17 -46 -1 -8 -10 -12 -24 -8 -30 3 -6 3 -8 -2 -4 -10
10 -47 -11 -40 -22 7 -12 56 6 72 26 16 22 31 10 26 -20 -4 -18 -13 -26 -31
-28 -18 -2 -28 -10 -30 -23 -2 -11 -15 -30 -30 -42 -29 -25 -18 -30 23 -11 18
8 25 18 22 30 -3 10 -2 18 3 18 4 0 10 -10 14 -22 4 -18 8 -20 17 -11 9 9 9
16 -1 28 -7 8 -9 15 -5 15 4 0 15 -10 25 -22 13 -17 15 -27 8 -36 -17 -20 -5
-22 30 -5 25 12 36 13 45 4 16 -16 27 -14 27 5 0 9 8 23 18 30 16 13 16 13 0
14 -10 0 -18 -4 -18 -10 0 -19 -66 -11 -85 10 -10 11 -16 23 -12 26 9 9 47 -6
44 -18 -1 -6 4 -13 11 -15 19 -7 14 12 -8 32 -11 10 -20 24 -20 32 0 7 -6 13
-12 13 -7 0 -2 7 10 16 18 12 26 13 37 4 8 -7 12 -17 8 -23 -3 -6 -1 -7 6 -3
6 4 9 11 7 15 -3 3 12 5 32 4 20 -2 48 -3 61 -3 20 0 22 -2 11 -15 -9 -11 -16
-13 -24 -5 -19 19 -51 11 -63 -17 -17 -35 -8 -42 17 -15 30 32 40 27 38 -19
-1 -23 4 -44 11 -48 10 -6 9 -10 -3 -14 -8 -3 -16 -1 -18 5 -3 7 -13 3 -26
-10 -16 -16 -29 -20 -51 -16 -18 4 -31 1 -36 -7 -6 -9 -3 -11 8 -6 19 7 22 -4
6 -20 -8 -8 -5 -13 10 -18 26 -8 28 -25 2 -25 -10 0 -33 -5 -50 -11 -28 -10
-32 -15 -26 -36 7 -30 -6 -55 -15 -28 -7 19 -7 19 -17 0 -10 -19 -7 -20 55
-22 50 -2 71 2 84 14 14 13 21 14 30 5 9 -9 6 -12 -12 -13 -14 -1 9 -5 50 -9
70 -7 104 0 86 17 -4 4 -11 1 -15 -6 -5 -8 -14 -10 -21 -6 -9 6 -9 9 1 15 9 6
10 12 2 22 -8 10 -8 18 3 32 18 26 32 11 15 -16 -11 -18 -11 -20 3 -15 15 6
43 -28 38 -45 -1 -5 15 -8 35 -8 29 0 34 3 25 12 -7 7 -12 19 -11 27 0 11 4 8
11 -6 6 -13 18 -23 27 -24 10 0 6 -4 -9 -11 -15 -6 -71 -8 -145 -4 -66 3 -237
8 -380 11 -143 3 -465 10 -715 16 -352 8 -1912 18 -3265 22 -304 1 -340 -2
-376 -26 -23 -15 -38 -36 -46 -62 -12 -43 -46 -700 -83 -1630 -5 -137 -12
-302 -15 -365 -3 -63 -10 -250 -15 -415 -5 -165 -12 -363 -15 -440 -3 -77 -10
-322 -15 -545 -6 -223 -15 -567 -20 -765 -5 -198 -12 -552 -16 -786 l-7 -426
69 -74 c38 -40 101 -107 139 -149 100 -108 101 -108 196 -116 49 -4 91 -13
100 -21 14 -12 17 -12 23 3 4 11 10 14 17 7 6 -6 29 -6 62 -1 28 5 76 11 106
15 49 5 53 4 48 -11 -5 -12 -3 -16 5 -13 7 2 12 9 11 16 -2 7 58 10 205 9 241
-2 243 -1 235 18 -6 17 15 46 28 38 5 -3 10 1 10 8 1 7 5 0 8 -17 12 -50 20
81 31 540 23 923 37 1259 55 1300 17 41 60 82 102 96 26 8 113 8 351 0 174 -6
337 -14 361 -17 24 -3 87 -5 140 -5 53 0 137 -2 186 -6 l90 -7 -70 -17 c-39
-10 -58 -18 -43 -18 15 -1 38 3 52 9 20 7 24 6 20 -5 -3 -7 -12 -11 -20 -8 -8
3 -14 1 -14 -4 0 -6 15 -15 33 -21 29 -10 29 -11 5 -8 -16 2 -28 -1 -28 -7 0
-5 -9 -7 -20 -4 -11 3 -22 2 -25 -3 -3 -4 5 -10 18 -14 33 -9 49 -7 42 4 -8
14 26 1 48 -18 13 -12 17 -31 17 -84 0 -61 2 -68 20 -68 11 0 20 -5 20 -11 0
-6 -9 -9 -20 -6 -17 4 -20 0 -20 -34 0 -24 5 -39 13 -39 9 0 9 -2 -1 -9 -8 -5
-15 -40 -19 -98 -5 -84 -4 -91 13 -96 17 -4 17 -5 2 -6 -15 -1 -18 -12 -19
-78 0 -43 -2 -91 -4 -108 -2 -16 -6 -147 -9 -290 -13 -582 -20 -685 -46 -685
-5 0 -2 12 6 28 10 19 14 62 14 147 0 66 4 248 9 405 6 157 12 371 16 475 3
105 8 267 11 360 8 201 8 200 -86 196 -33 -1 -60 2 -60 6 0 9 -605 11 -613 3
-7 -7 -22 -347 -32 -755 -3 -115 -8 -228 -10 -250 -2 -22 -7 -160 -11 -306 -6
-255 -6 -267 12 -272 11 -3 92 -9 181 -12 124 -6 163 -10 167 -21 3 -8 1 -14
-4 -14 -6 0 -10 5 -10 10 0 6 -27 10 -60 10 -55 0 -60 -2 -66 -25 -5 -21 -11
-24 -28 -19 -11 4 -24 12 -28 18 -5 8 -8 7 -8 -2 0 -7 7 -15 15 -18 22 -9 18
-24 -6 -24 -12 0 -17 4 -14 11 4 6 -3 5 -14 -3 -22 -13 -22 -13 4 -16 18 -2
25 -8 21 -18 -3 -8 1 -14 9 -14 8 0 15 5 15 11 0 7 7 8 18 4 9 -4 23 -8 30 -9
7 -1 18 -8 25 -15 10 -11 7 -12 -13 -6 -14 4 -30 10 -36 12 -7 2 -15 0 -19 -6
-4 -7 4 -11 19 -11 16 0 26 -6 26 -15 0 -8 -7 -15 -15 -15 -8 0 -15 5 -15 10
0 6 -8 10 -19 10 -10 0 -24 6 -31 14 -15 19 -40 9 -40 -15 0 -15 5 -17 30 -13
23 5 30 3 30 -9 0 -9 10 -23 22 -31 12 -9 16 -16 9 -16 -8 0 -11 -6 -7 -16 5
-13 2 -15 -15 -11 -12 3 -32 2 -44 -3 -20 -8 -24 -6 -28 13 -4 21 -4 21 -6 -2
-1 -17 -5 -21 -17 -17 -9 3 -25 6 -35 6 -12 0 -17 4 -13 11 3 6 -5 3 -20 -6
-22 -15 -40 -16 -124 -10 -53 4 -161 8 -240 9 -136 1 -142 0 -141 -19 0 -11 3
-14 6 -7 2 7 22 12 44 12 22 0 38 -3 35 -8 -2 -4 17 -8 42 -9 61 -1 370 -12
493 -17 53 -2 102 -7 108 -10 6 -4 11 -2 11 4 0 6 5 8 12 4 7 -5 5 -11 -7 -21
-18 -12 -18 -13 3 -13 12 0 22 6 22 14 0 13 48 14 265 4 11 -1 27 0 35 3 8 2
19 -6 25 -18 11 -27 37 -31 33 -6 -3 14 6 16 62 14 44 -1 69 -7 77 -17 10 -13
15 -13 48 0 44 19 75 21 75 5 0 -6 -6 -9 -13 -6 -7 3 -24 -4 -38 -14 l-24 -19
28 10 c16 5 41 10 57 10 16 0 30 4 32 9 6 17 84 23 100 8 15 -15 78 -18 78 -4
0 5 6 7 13 4 6 -2 23 -1 37 3 14 4 34 4 45 -1 16 -6 13 -8 -15 -10 -24 -1 -28
-3 -12 -6 31 -6 28 -23 -5 -24 -19 -1 -22 -3 -10 -6 28 -7 67 6 67 22 0 12 5
12 30 -3 30 -19 90 -19 90 -1 0 5 17 9 38 9 35 -1 36 -1 17 -16 -13 -11 -16
-18 -8 -21 7 -2 9 -12 6 -21 -6 -15 -4 -15 10 -4 8 8 13 20 10 28 -3 8 1 14
11 14 9 0 16 -4 16 -10 0 -5 7 -7 16 -3 11 4 12 9 5 16 -17 17 -13 30 6 22 10
-4 30 -7 46 -6 15 1 27 -4 27 -9 0 -6 -4 -8 -10 -5 -5 3 -10 1 -10 -4 0 -6 9
-11 20 -11 11 0 20 -4 20 -10 0 -5 7 -7 15 -4 8 4 15 1 15 -5 0 -6 -9 -11 -21
-11 -13 0 -23 -10 -30 -30 -6 -16 -18 -30 -27 -30 -13 0 -12 3 4 16 18 15 18
15 -11 9 -35 -8 -45 -16 -27 -22 10 -4 8 -8 -5 -18 -17 -13 -17 -15 2 -41 18
-24 74 -57 61 -35 -3 4 6 13 19 19 17 8 23 16 18 28 -5 14 -2 16 15 12 15 -4
25 0 32 12 13 23 -5 37 -25 20 -23 -19 -44 -9 -34 18 11 28 54 30 71 2 16 -25
46 -27 44 -3 0 10 5 17 12 16 6 -2 12 4 12 12 0 8 4 15 10 15 5 0 7 -7 4 -15
-4 -10 0 -15 15 -15 12 0 21 5 19 13 -2 6 1 12 7 12 5 0 10 -8 10 -17 1 -10 5
-21 8 -24 9 -9 29 46 23 63 -3 7 -1 13 5 13 18 0 20 -26 4 -63 -19 -45 -19
-47 0 -47 8 0 15 -7 15 -15 0 -8 -4 -15 -10 -15 -5 0 -10 -7 -10 -15 0 -9 -10
-15 -26 -15 -21 0 -24 4 -19 20 5 15 2 20 -13 20 -13 0 -18 -6 -16 -23 1 -12
3 -25 3 -29 1 -5 23 -8 49 -8 46 0 49 2 65 38 9 21 17 44 17 51 0 7 5 9 11 6
6 -4 7 -19 4 -36 -4 -18 -3 -29 4 -29 6 0 11 8 11 19 0 20 36 36 46 20 3 -5
-2 -9 -10 -9 -9 0 -16 -9 -16 -20 0 -16 -7 -20 -30 -20 -16 0 -30 -4 -30 -10
0 -5 20 -10 45 -10 25 0 45 5 45 10 0 6 -4 10 -10 10 -5 0 -10 4 -10 8 0 5 7
9 15 9 8 0 15 -9 15 -19 0 -15 8 -18 58 -17 31 1 49 3 40 6 -32 8 -19 19 17
15 19 -2 35 -8 35 -13 0 -5 497 -9 1180 -9 l1180 0 0 3290 0 3291 -745 -2
c-449 0 -743 -4 -739 -10z m51 -5 c-3 -3 -12 -4 -19 -1 -8 3 -5 6 6 6 11 1 17
-2 13 -5z m213 2 c0 -3 -4 -8 -10 -11 -5 -3 -10 -1 -10 4 0 6 5 11 10 11 6 0
10 -2 10 -4z m-220 -36 c0 -5 -4 -10 -10 -10 -5 0 -10 -7 -10 -15 0 -8 -7 -15
-15 -15 -21 0 -19 27 3 39 22 13 32 14 32 1z m111 -2 c1 -7 1 -16 0 -20 0 -5
10 -8 24 -8 18 0 23 4 19 15 -4 9 0 15 10 15 18 0 18 -5 7 -35 -4 -11 -16 -20
-26 -20 -10 0 -20 -6 -22 -12 -3 -9 7 -13 30 -13 29 0 36 -4 41 -25 4 -16 13
-25 26 -25 21 0 27 -15 11 -25 -5 -3 -18 6 -29 20 -11 13 -23 21 -27 17 -5 -4
-5 -1 -1 6 7 13 -2 16 -41 12 -20 -1 -28 9 -24 32 0 4 -8 12 -19 18 -11 6 -18
15 -15 20 10 17 -15 21 -31 6 -9 -9 -20 -13 -26 -10 -13 8 41 42 70 43 12 1
23 -5 23 -11z m159 -44 c0 -7 -9 -18 -20 -24 -29 -15 -60 4 -60 36 l0 26 19
-23 c15 -18 22 -21 31 -13 8 8 9 14 1 18 -6 4 -11 12 -11 18 0 6 9 3 20 -7 11
-10 20 -24 20 -31z m-215 -14 c3 -5 2 -10 -4 -10 -5 0 -13 5 -16 10 -3 6 -2
10 4 10 5 0 13 -4 16 -10z m409 -46 c3 -8 2 -12 -4 -9 -6 3 -10 10 -10 16 0
14 7 11 14 -7z m-157 0 c-3 -3 -12 -4 -19 -1 -8 3 -5 6 6 6 11 1 17 -2 13 -5z
m-153 -52 c2 -4 -2 -15 -9 -25 -15 -20 -31 -6 -21 18 6 16 22 20 30 7z m276
-2 c0 -5 -9 -10 -20 -10 -11 0 -20 5 -20 10 0 6 9 10 20 10 11 0 20 -4 20 -10z
m50 0 c0 -5 -4 -10 -10 -10 -5 0 -10 5 -10 10 0 6 5 10 10 10 6 0 10 -4 10
-10z m-270 -54 c0 -16 -28 -42 -36 -33 -7 6 18 47 28 47 5 0 8 -6 8 -14z m260
-16 c0 -5 -5 -10 -11 -10 -5 0 -7 5 -4 10 3 6 8 10 11 10 2 0 4 -4 4 -10z
m-215 -10 c3 -5 -1 -10 -9 -10 -8 0 -18 5 -21 10 -3 6 1 10 9 10 8 0 18 -4 21
-10z m155 1 c0 -5 -7 -11 -15 -15 -9 -3 -15 0 -15 9 0 8 7 15 15 15 8 0 15 -4
15 -9z m-56 -16 c4 -10 -1 -15 -14 -15 -13 0 -18 5 -14 15 4 8 10 15 14 15 4
0 10 -7 14 -15z m82 -24 c-3 -5 -15 -7 -26 -4 -28 7 -25 13 6 13 14 0 23 -4
20 -9z m-349 -16 c8 -8 19 -13 24 -10 5 4 6 -1 3 -9 -8 -22 -17 -20 -44 9 -25
27 -9 36 17 10z m273 -18 c0 -4 -6 -2 -14 5 -8 7 -12 17 -9 22 5 8 23 -12 23
-27z m-116 3 c-7 -7 -19 -7 -35 -1 -23 9 -22 10 11 10 23 1 31 -2 24 -9z m190
-35 c-4 -8 -12 -15 -20 -15 -8 0 -14 -7 -14 -15 0 -16 -16 -20 -24 -6 -5 7 38
41 61 50 1 1 0 -6 -3 -14z m-335 -4 c17 -11 7 -41 -14 -41 -10 0 -14 8 -13 25
3 27 6 29 27 16z m116 -11 c3 -5 1 -10 -4 -10 -6 0 -11 5 -11 10 0 6 2 10 4
10 3 0 8 -4 11 -10z m55 -8 c0 -20 -18 -42 -34 -42 -6 0 -3 7 8 15 11 8 16 21
13 30 -4 8 -2 15 3 15 6 0 10 -8 10 -18z m246 -30 c-11 -10 -15 4 -8 28 l7 25
3 -23 c2 -13 1 -26 -2 -30z m-503 22 c9 -4 17 -13 17 -20 0 -18 -5 -18 -35 2
-25 17 -35 40 -12 30 6 -3 20 -9 30 -12z m424 -16 c-3 -8 -6 -5 -6 6 -1 11 2
17 5 13 3 -3 4 -12 1 -19z m-307 -18 c0 -5 -4 -10 -10 -10 -5 0 -10 5 -10 10
0 6 5 10 10 10 6 0 10 -4 10 -10z m433 -37 c-35 -2 -91 -2 -125 0 -35 2 -7 3
62 3 69 0 97 -1 63 -3z m190 -10 c-7 -2 -19 -2 -25 0 -7 3 -2 5 12 5 14 0 19
-2 13 -5z m-2115 -167 c3 -3 -11 -6 -32 -6 -22 0 -35 -4 -31 -10 3 -5 1 -10
-4 -10 -6 0 -11 5 -11 10 0 6 -10 10 -22 11 -22 1 -22 1 2 8 27 8 88 6 98 -3z
m807 -1 c28 -2 201 -7 385 -11 371 -6 387 -9 420 -72 16 -29 18 -100 25 -754
4 -398 9 -736 10 -753 8 -86 5 -1465 -4 -1487 -5 -14 -22 -35 -38 -48 l-28
-22 -505 6 c-278 4 -788 11 -1135 16 -346 6 -904 12 -1240 16 -335 3 -653 7
-705 9 -390 15 -590 16 -590 3 0 -9 -3 -9 -8 -2 -4 6 -27 14 -51 18 -102 16
-115 39 -121 228 -3 81 -2 148 1 148 3 0 6 6 6 13 0 6 3 133 8 281 6 224 5
267 -6 260 -11 -6 -12 -5 -2 7 16 21 22 79 28 319 8 289 22 678 36 1003 10
213 15 267 25 263 8 -3 404 -6 881 -8 478 -1 1001 -5 1163 -8 162 -3 310 -4
327 -2 31 3 32 4 18 25 -12 19 -12 28 0 62 l13 40 18 -62 c16 -58 20 -63 45
-63 29 0 33 16 10 43 -9 12 -10 21 -2 36 13 24 14 51 2 51 -5 0 -12 -14 -16
-30 -4 -17 -11 -28 -16 -24 -14 8 -11 36 4 29 6 -3 2 2 -10 11 -13 9 -23 21
-23 26 0 6 6 5 15 -2 11 -9 19 -8 37 4 12 9 18 16 13 16 -5 0 -4 5 3 12 9 9
15 9 24 0 14 -14 38 -16 38 -2 0 5 -11 12 -24 16 -19 4 -23 11 -21 40 1 26 -2
34 -14 33 -27 -2 -45 1 -60 10 -12 8 -12 11 0 23 8 8 19 13 25 11 17 -6 37 24
30 43 -6 16 -8 15 -21 -2 -14 -18 -14 -18 -15 4 0 15 -6 22 -21 22 -11 0 -18
4 -15 9 3 5 15 7 27 4 19 -5 20 -3 14 33 -5 31 -4 35 5 21 11 -17 14 -16 42
12 24 23 35 28 45 20 7 -6 10 -15 7 -20 -5 -9 18 -39 30 -39 2 0 4 9 3 20 -1
11 -5 20 -10 20 -8 0 -1 69 8 78 2 2 16 -3 33 -12 21 -11 37 -13 58 -6 17 5
22 9 11 9 -25 1 -11 21 16 22 21 0 21 1 2 9 -17 6 -13 9 20 15 33 7 36 9 20
16 -19 9 650 3 750 -6z m-1072 -2 c-7 -2 -19 -2 -25 0 -7 3 -2 5 12 5 14 0 19
-2 13 -5z m84 1 c-3 -3 -12 -4 -19 -1 -8 3 -5 6 6 6 11 1 17 -2 13 -5z m46 -1
c-7 -2 -19 -2 -25 0 -7 3 -2 5 12 5 14 0 19 -2 13 -5z m120 -20 c-7 -2 -19 -2
-25 0 -7 3 -2 5 12 5 14 0 19 -2 13 -5z m-233 -7 c0 -11 -19 -15 -25 -6 -3 5
1 10 9 10 9 0 16 -2 16 -4z m117 -48 c-3 -7 -5 -2 -5 12 0 14 2 19 5 13 2 -7
2 -19 0 -25z m-2530 -30 c-2 -13 -4 -5 -4 17 -1 22 1 32 4 23 2 -10 2 -28 0
-40z m2437 26 c9 -22 8 -24 -9 -24 -8 0 -15 9 -15 20 0 24 15 27 24 4z m46 6
c0 -5 -5 -10 -11 -10 -5 0 -7 5 -4 10 3 6 8 10 11 10 2 0 4 -4 4 -10z m-80
-44 c0 -11 -19 -15 -25 -6 -3 5 1 10 9 10 9 0 16 -2 16 -4z m-2403 -38 c-3 -8
-6 -5 -6 6 -1 11 2 17 5 13 3 -3 4 -12 1 -19z m-199 -148 c-3 -39 -8 -73 -11
-76 -8 -9 -143 -13 -156 -5 -8 5 -11 30 -9 72 l3 64 70 6 c39 3 78 6 89 7 17
2 18 -4 14 -68z m2575 36 c4 -10 1 -13 -9 -9 -7 3 -14 9 -14 14 0 14 17 10 23
-5z m-1925 -6 c18 0 22 -6 22 -30 0 -31 -17 -39 -38 -18 -13 13 -102 21 -102
9 0 -4 6 -8 14 -8 7 0 40 -5 72 -12 l59 -13 0 -39 c0 -31 -4 -39 -18 -39 -10
0 -16 -3 -14 -7 6 -10 -104 -10 -120 0 -6 4 -13 3 -15 -3 -8 -23 -29 9 -26 40
l3 32 29 -23 c26 -21 89 -29 105 -14 12 12 -23 23 -42 13 -14 -7 -17 -7 -13 1
5 7 -2 11 -16 11 -34 0 -68 27 -68 54 0 40 41 58 110 50 19 -2 45 -4 58 -4z
m262 -19 c29 -21 34 -40 26 -85 -12 -62 -121 -87 -187 -43 -28 19 -35 30 -37
63 -3 46 13 67 68 82 44 13 98 5 130 -17z m164 -12 c20 -17 40 -28 46 -24 5 3
7 0 4 -8 -3 -8 -1 -18 5 -22 7 -4 11 5 11 24 0 22 -5 31 -16 31 -9 0 -14 6
-12 13 3 6 25 13 51 15 37 2 47 0 47 -12 0 -9 -7 -16 -15 -16 -12 0 -15 -14
-15 -65 0 -61 -1 -65 -22 -65 -14 0 -44 21 -75 51 l-52 50 -7 -27 c-5 -19 -2
-31 10 -39 29 -22 18 -35 -29 -35 -33 0 -45 4 -45 15 0 8 7 15 15 15 11 0 15
12 15 49 0 34 -4 51 -15 55 -29 11 -15 26 25 26 30 0 48 -7 74 -31z m234 25
c13 -4 21 -12 18 -20 -3 -7 2 -18 10 -24 18 -16 46 4 37 26 -5 15 -4 15 49 17
24 0 34 -4 36 -17 3 -12 0 -16 -8 -11 -8 5 -27 -8 -51 -34 -42 -44 -48 -61
-24 -61 8 0 15 -7 15 -15 0 -12 -13 -15 -55 -15 -52 0 -73 14 -40 26 8 4 15
13 15 22 0 19 -59 82 -77 82 -22 0 -14 18 10 23 36 7 41 7 65 1z m1167 -94 c3
-5 1 -10 -4 -10 -6 0 -11 5 -11 10 0 6 2 10 4 10 3 0 8 -4 11 -10z m62 -41
c-4 -10 -8 -7 -12 9 -4 12 -11 22 -16 22 -5 0 -9 6 -9 12 0 7 9 3 21 -9 12
-11 19 -27 16 -34z m43 28 c0 -27 -9 -39 -22 -31 -5 3 -4 12 3 20 8 10 8 14 0
14 -6 0 -11 5 -11 10 0 6 7 10 15 10 9 0 15 -9 15 -23z m70 -1 c0 -21 -20 -30
-33 -17 -9 9 -8 14 3 21 21 14 30 12 30 -4z m-150 -26 c0 -5 -4 -10 -10 -10
-5 0 -10 5 -10 10 0 6 5 10 10 10 6 0 10 -4 10 -10z m-85 -20 c3 -5 1 -10 -4
-10 -6 0 -11 5 -11 10 0 6 2 10 4 10 3 0 8 -4 11 -10z m55 0 c0 -5 -4 -10 -10
-10 -17 0 -11 -47 8 -56 9 -4 20 -6 25 -6 4 1 7 -2 7 -8 0 -14 -27 -13 -32 2
-2 6 -9 8 -16 4 -16 -9 -3 -36 22 -46 16 -7 10 -9 -24 -8 -25 0 -35 3 -22 5
12 3 19 9 16 15 -11 17 -10 92 1 105 12 15 25 16 25 3z m79 -22 c0 -13 -7 -39
-14 -58 l-14 -35 3 30 c1 17 6 37 10 43 4 7 5 19 2 27 -3 8 -1 15 4 15 6 0 10
-10 9 -22z m-552 -40 c-2 -13 -4 -5 -4 17 -1 22 1 32 4 23 2 -10 2 -28 0 -40z
m358 42 c-3 -5 -12 -10 -18 -10 -7 0 -6 4 3 10 19 12 23 12 15 0z m-272 -15
c-3 -9 -8 -14 -10 -11 -3 3 -2 9 2 15 9 16 15 13 8 -4z m207 -9 c0 -8 -4 -17
-8 -20 -4 -2 -8 4 -8 15 0 10 4 19 8 19 4 0 8 -6 8 -14z m215 4 c8 -13 -5 -13
-25 0 -13 8 -13 10 2 10 9 0 20 -4 23 -10z m-121 -15 c3 -8 1 -15 -4 -15 -6 0
-10 7 -10 15 0 8 2 15 4 15 2 0 6 -7 10 -15z m29 1 c6 -16 -19 -43 -30 -32 -3
3 -1 6 6 6 8 0 11 8 8 20 -6 23 8 28 16 6z m-167 -16 c0 -12 -4 -16 -9 -11 -5
5 -6 14 -3 20 10 15 12 14 12 -9z m64 6 c0 -2 -8 -10 -17 -17 -16 -13 -17 -12
-4 4 13 16 21 21 21 13z m-153 -38 c-3 -7 -5 -2 -5 12 0 14 2 19 5 13 2 -7 2
-19 0 -25z m188 23 c3 -5 1 -12 -5 -16 -5 -3 -10 1 -10 9 0 18 6 21 15 7z
m295 -41 c-8 -5 -17 -7 -19 -4 -3 3 1 9 9 14 8 5 17 7 19 4 3 -3 -1 -9 -9 -14z
m-263 4 c-3 -3 -12 -4 -19 -1 -8 3 -5 6 6 6 11 1 17 -2 13 -5z m173 -4 c0 -5
-5 -10 -11 -10 -5 0 -7 5 -4 10 3 6 8 10 11 10 2 0 4 -4 4 -10z m-2750 -1330
c0 -5 -4 -10 -10 -10 -5 0 -10 5 -10 10 0 6 5 10 10 10 6 0 10 -4 10 -10z
m5566 -93 c1 -7 3 -17 5 -23 2 -7 0 -14 -6 -15 -5 -2 -11 12 -13 31 -3 31 9
37 14 7z m-5296 -307 c-8 -5 -19 -10 -25 -10 -5 0 -3 5 5 10 8 5 20 10 25 10
6 0 3 -5 -5 -10z m-163 -46 c-3 -3 -12 -4 -19 -1 -8 3 -5 6 6 6 11 1 17 -2 13
-5z m140 -66 c-3 -8 -6 -5 -6 6 -1 11 2 17 5 13 3 -3 4 -12 1 -19z m3 -88 c0
-5 -5 -10 -11 -10 -5 0 -7 5 -4 10 3 6 8 10 11 10 2 0 4 -4 4 -10z m-175 -10
c3 -5 1 -10 -4 -10 -6 0 -11 5 -11 10 0 6 2 10 4 10 3 0 8 -4 11 -10z m202
-42 c-3 -8 -6 -5 -6 6 -1 11 2 17 5 13 3 -3 4 -12 1 -19z m-457 -42 c0 -3 -4
-8 -10 -11 -5 -3 -10 -1 -10 4 0 6 5 11 10 11 6 0 10 -2 10 -4z m377 -18 c-3
-8 -6 -5 -6 6 -1 11 2 17 5 13 3 -3 4 -12 1 -19z m63 -149 c0 -6 -4 -7 -10 -4
-5 3 -10 11 -10 16 0 6 5 7 10 4 6 -3 10 -11 10 -16z m-450 -53 c0 -3 -4 -8
-10 -11 -5 -3 -10 -1 -10 4 0 6 5 11 10 11 6 0 10 -2 10 -4z m456 -45 c1 -6 0
-7 -2 -2 -3 6 -12 7 -20 4 -8 -3 -14 -1 -14 5 0 14 33 8 36 -7z m-26 -41 c0
-5 -2 -10 -4 -10 -3 0 -8 5 -11 10 -3 6 -1 10 4 10 6 0 11 -4 11 -10z m-150
-50 c0 -5 -4 -10 -10 -10 -5 0 -10 5 -10 10 0 6 5 10 10 10 6 0 10 -4 10 -10z
m160 0 c0 -5 -7 -10 -16 -10 -8 0 -12 5 -9 10 3 6 10 10 16 10 5 0 9 -4 9 -10z
m-235 -10 c3 -6 -1 -7 -9 -4 -18 7 -21 14 -7 14 6 0 13 -4 16 -10z m221 -47
c-3 -4 -1 -12 6 -20 8 -10 8 -12 -4 -8 -8 3 -15 19 -15 36 0 24 2 27 10 14 5
-9 6 -19 3 -22z m-149 -15 c-3 -8 -6 -5 -6 6 -1 11 2 17 5 13 3 -3 4 -12 1
-19z m56 -15 c-7 -2 -19 -2 -25 0 -7 3 -2 5 12 5 14 0 19 -2 13 -5z m-193 -13
c0 -5 -5 -10 -11 -10 -5 0 -7 5 -4 10 3 6 8 10 11 10 2 0 4 -4 4 -10z m100 0
c0 -5 -4 -10 -10 -10 -5 0 -10 5 -10 10 0 6 5 10 10 10 6 0 10 -4 10 -10z
m245 -10 c3 -5 1 -10 -4 -10 -6 0 -11 5 -11 10 0 6 2 10 4 10 3 0 8 -4 11 -10z
m-175 -50 c0 -5 -2 -10 -4 -10 -3 0 -8 5 -11 10 -3 6 -1 10 4 10 6 0 11 -4 11
-10z m220 0 c0 -5 -2 -10 -4 -10 -3 0 -8 5 -11 10 -3 6 -1 10 4 10 6 0 11 -4
11 -10z m35 0 c3 -5 1 -10 -4 -10 -6 0 -11 5 -11 10 0 6 2 10 4 10 3 0 8 -4
11 -10z m-415 -76 c0 -2 -7 -4 -15 -4 -8 0 -15 4 -15 10 0 5 7 7 15 4 8 -4 15
-8 15 -10z m345 -4 c3 -5 1 -10 -4 -10 -6 0 -11 5 -11 10 0 6 2 10 4 10 3 0 8
-4 11 -10z m305 -80 c0 -5 -2 -10 -4 -10 -3 0 -8 5 -11 10 -3 6 -1 10 4 10 6
0 11 -4 11 -10z m280 6 c0 -3 -4 -8 -10 -11 -5 -3 -10 -1 -10 4 0 6 5 11 10
11 6 0 10 -2 10 -4z m-45 -26 c3 -5 1 -10 -4 -10 -6 0 -11 5 -11 10 0 6 2 10
4 10 3 0 8 -4 11 -10z m-440 -90 c-3 -5 -11 -10 -16 -10 -6 0 -7 5 -4 10 3 6
11 10 16 10 6 0 7 -4 4 -10z m155 -30 c0 -5 -4 -10 -10 -10 -5 0 -10 5 -10 10
0 6 5 10 10 10 6 0 10 -4 10 -10z m-393 -6 c-3 -3 -12 -4 -19 -1 -8 3 -5 6 6
6 11 1 17 -2 13 -5z m610 -90 c-3 -3 -12 -4 -19 -1 -8 3 -5 6 6 6 11 1 17 -2
13 -5z m128 -34 c3 -5 1 -10 -4 -10 -6 0 -11 5 -11 10 0 6 2 10 4 10 3 0 8 -4
11 -10z m-1015 -14 c0 -3 -4 -8 -10 -11 -5 -3 -10 -1 -10 4 0 6 5 11 10 11 6
0 10 -2 10 -4z m-90 -22 c0 -2 -7 -4 -15 -4 -8 0 -15 4 -15 10 0 5 7 7 15 4 8
-4 15 -8 15 -10z m2530 -72 c0 -4 -18 -6 -40 -4 -22 2 -40 6 -40 8 0 2 18 4
40 4 22 0 40 -3 40 -8z m-2350 -52 c0 -5 -2 -10 -4 -10 -3 0 -8 5 -11 10 -3 6
-1 10 4 10 6 0 11 -4 11 -10z m2247 -32 c-3 -8 -6 -5 -6 6 -1 11 2 17 5 13 3
-3 4 -12 1 -19z m56 -35 c-7 -2 -19 -2 -25 0 -7 3 -2 5 12 5 14 0 19 -2 13 -5z
m-2488 -133 c-3 -5 -12 -10 -18 -10 -7 0 -6 4 3 10 19 12 23 12 15 0z m2445
-74 c0 -2 -7 -7 -16 -10 -8 -3 -12 -2 -9 4 6 10 25 14 25 6z m-2395 -46 c3 -5
1 -10 -4 -10 -6 0 -11 5 -11 10 0 6 2 10 4 10 3 0 8 -4 11 -10z m795 -20 c0
-5 -2 -10 -4 -10 -3 0 -8 5 -11 10 -3 6 -1 10 4 10 6 0 11 -4 11 -10z m1090
-70 c0 -5 -2 -10 -4 -10 -3 0 -8 5 -11 10 -3 6 -1 10 4 10 6 0 11 -4 11 -10z
m615 1 c3 -5 1 -12 -5 -16 -5 -3 -10 1 -10 9 0 18 6 21 15 7z m-35 -25 c0 -2
-7 -6 -15 -10 -8 -3 -15 -1 -15 4 0 6 7 10 15 10 8 0 15 -2 15 -4z m25 -226
c3 -5 1 -10 -4 -10 -6 0 -11 5 -11 10 0 6 2 10 4 10 3 0 8 -4 11 -10z m-2 -27
c-7 -2 -19 -2 -25 0 -7 3 -2 5 12 5 14 0 19 -2 13 -5z m-2338 -43 c3 -5 1 -10
-4 -10 -6 0 -11 5 -11 10 0 6 2 10 4 10 3 0 8 -4 11 -10z m1485 -30 c0 -5 -2
-10 -4 -10 -3 0 -8 5 -11 10 -3 6 -1 10 4 10 6 0 11 -4 11 -10z m730 -90 c0
-5 -4 -10 -10 -10 -5 0 -10 5 -10 10 0 6 5 10 10 10 6 0 10 -4 10 -10z m27
-156 c-3 -3 -12 -4 -19 -1 -8 3 -5 6 6 6 11 1 17 -2 13 -5z m263 -426 c26 10
70 4 70 -9 0 -14 -38 -11 -43 4 -3 6 -6 1 -7 -13 -1 -23 -2 -24 -14 -7 -13 17
-15 16 -24 -10 -6 -17 -11 -21 -11 -11 -1 19 -34 41 -45 31 -3 -3 -6 -1 -6 5
0 14 32 21 46 10 6 -5 22 -5 34 0z m344 -16 c3 -5 -1 -9 -9 -9 -8 0 -12 4 -9
9 3 4 7 8 9 8 2 0 6 -4 9 -8z m-323 -71 c-8 -5 -25 -7 -38 -5 -12 2 -23 0 -23
-6 0 -10 13 -14 36 -11 19 2 34 -23 24 -39 -7 -11 -10 -11 -10 -2 0 12 -46 37
-62 34 -4 -1 -2 9 4 23 12 27 27 32 46 13 9 -9 12 -8 12 7 0 15 3 16 12 7 10
-10 10 -15 -1 -21z m-71 -47 c0 -14 -48 -62 -56 -56 -5 4 -3 -1 5 -10 7 -9 19
-14 27 -11 8 3 14 0 14 -6 0 -6 -13 -10 -29 -9 -16 1 -27 6 -25 10 3 4 -1 8
-10 8 -8 0 -17 -6 -19 -12 -4 -10 -8 -9 -16 2 -7 10 -11 11 -11 3 0 -7 -5 -13
-11 -13 -15 0 0 20 24 31 44 20 72 39 58 39 -11 0 -9 4 5 15 19 15 44 20 44 9z
m350 -24 c0 -5 -5 -10 -11 -10 -5 0 -7 5 -4 10 3 6 8 10 11 10 2 0 4 -4 4 -10z
m-206 -30 c-6 -6 -10 -3 -10 10 0 13 4 16 10 10 7 -7 7 -13 0 -20z m-34 -15
c0 -17 -27 -32 -37 -21 -4 3 2 13 13 21 24 18 24 18 24 0z m-730 -25 c0 -5 -4
-10 -10 -10 -5 0 -10 5 -10 10 0 6 5 10 10 10 6 0 10 -4 10 -10z m917 4 c-3
-3 -12 -4 -19 -1 -8 3 -5 6 6 6 11 1 17 -2 13 -5z m93 -3 c0 -5 -9 -7 -20 -4
-11 3 -20 7 -20 9 0 2 9 4 20 4 11 0 20 -4 20 -9z m-1073 -35 c-9 -7 -28 -11
-42 -8 -17 3 -27 -1 -31 -12 -3 -9 -13 -16 -21 -16 -29 0 32 38 68 43 19 2 36
4 39 5 3 1 -3 -5 -13 -12z m28 -25 c-3 -6 -13 -11 -21 -11 -8 0 -12 5 -9 10 4
6 11 8 16 5 5 -4 9 -1 9 6 0 7 3 10 6 6 3 -3 3 -10 -1 -16z m-155 5 c0 -3 -4
-8 -10 -11 -5 -3 -10 -1 -10 4 0 6 5 11 10 11 6 0 10 -2 10 -4z m-26 -21 c3
-9 0 -15 -8 -15 -7 0 -19 7 -26 15 -10 12 -9 15 8 15 11 0 22 -7 26 -15z m36
-25 c0 -5 -4 -10 -10 -10 -5 0 -10 5 -10 10 0 6 5 10 10 10 6 0 10 -4 10 -10z
m55 0 c3 -5 -1 -10 -10 -10 -9 0 -13 5 -10 10 3 6 8 10 10 10 2 0 7 -4 10 -10z
m120 0 c3 -5 -1 -10 -10 -10 -9 0 -13 5 -10 10 3 6 8 10 10 10 2 0 7 -4 10
-10z m-68 -6 c-3 -3 -12 -4 -19 -1 -8 3 -5 6 6 6 11 1 17 -2 13 -5z m-42 -34
c-27 -12 -43 -12 -25 0 8 5 22 9 30 9 10 0 8 -3 -5 -9z m-70 -10 c3 -5 -1 -10
-9 -10 -9 0 -16 5 -16 10 0 6 4 10 9 10 6 0 13 -4 16 -10z m79 -25 c-3 -20 0
-25 15 -25 28 0 37 -21 16 -37 -25 -18 -75 -17 -75 1 0 10 7 12 23 9 21 -5 21
-5 2 10 -10 8 -25 13 -31 10 -7 -2 -15 0 -19 6 -4 7 4 11 19 11 29 0 36 19 9
21 -12 1 -10 4 7 9 38 12 39 12 34 -15z m-90 -20 c3 -9 0 -15 -9 -15 -8 0 -15
7 -15 15 0 8 4 15 9 15 5 0 11 -7 15 -15z m153 9 c-3 -3 -12 -4 -19 -1 -8 3
-5 6 6 6 11 1 17 -2 13 -5z m53 -34 c0 -5 -7 -10 -15 -10 -8 0 -15 5 -15 10 0
6 7 10 15 10 8 0 15 -4 15 -10z m-181 -9 c10 -6 5 -11 -18 -16 -18 -4 -35 -4
-38 -1 -4 3 1 6 10 6 10 0 17 5 17 10 0 12 10 13 29 1z m211 -11 c0 -5 -5 -10
-11 -10 -5 0 -7 5 -4 10 3 6 8 10 11 10 2 0 4 -4 4 -10z m1310 -114 c0 -11
-19 -15 -25 -6 -3 5 1 10 9 10 9 0 16 -2 16 -4z m260 -16 c0 -22 -24 -27 -36
-8 -4 7 -3 8 5 4 6 -4 14 0 17 8 8 22 14 20 14 -4z m167 4 c-3 -3 -12 -4 -19
-1 -8 3 -5 6 6 6 11 1 17 -2 13 -5z m-544 -11 c-7 -2 -19 -2 -25 0 -7 3 -2 5
12 5 14 0 19 -2 13 -5z m190 -8 c4 -8 2 -17 -3 -20 -6 -4 -10 3 -10 14 0 25 6
27 13 6z m213 -32 c-11 -11 -17 4 -9 23 7 18 8 18 11 1 2 -10 1 -21 -2 -24z
m-89 16 c26 -10 26 -12 8 -19 -24 -9 -42 -3 -49 16 -6 17 3 18 41 3z m-47 -24
c0 -8 -7 -15 -15 -15 -16 0 -20 12 -8 23 11 12 23 8 23 -8z m186 0 c-4 -10 2
-19 17 -25 20 -8 19 -9 -9 -9 -28 -1 -31 2 -26 24 2 14 9 25 14 25 6 0 7 -7 4
-15z m224 -5 c-19 -13 -30 -13 -30 0 0 6 10 10 23 10 18 0 19 -2 7 -10z m-490
-20 c-13 -11 -25 -20 -27 -20 -1 0 -3 9 -3 20 0 15 7 20 27 20 l26 0 -23 -20z
m198 0 c16 -1 16 -1 0 -10 -18 -11 -48 -3 -48 12 0 6 7 7 16 4 9 -3 23 -6 32
-6z m157 0 c3 -5 2 -10 -4 -10 -5 0 -13 5 -16 10 -3 6 -2 10 4 10 5 0 13 -4
16 -10z m62 4 c-3 -3 -12 -4 -19 -1 -8 3 -5 6 6 6 11 1 17 -2 13 -5z m-362
-14 c3 -6 -1 -7 -9 -4 -18 7 -21 14 -7 14 6 0 13 -4 16 -10z m490 -8 c-3 -3
-11 0 -18 7 -9 10 -8 11 6 5 10 -3 15 -9 12 -12z m-428 2 c-3 -3 -12 -4 -19
-1 -8 3 -5 6 6 6 11 1 17 -2 13 -5z m290 -32 c-7 -10 -13 -10 -15 -3 -2 6 -10
11 -18 11 -7 0 -11 6 -8 14 4 11 10 11 29 2 18 -8 21 -14 12 -24z m-720 -2 c0
-34 -1 -34 -28 -20 -25 14 -24 29 4 40 12 5 22 9 23 9 0 1 1 -12 1 -29z m539
-8 c-22 -5 -30 3 -21 18 5 8 11 7 22 -2 15 -12 14 -13 -1 -16z m-65 -15 c-10
-9 -11 -8 -5 6 3 10 9 15 12 12 3 -3 0 -11 -7 -18z m199 9 c0 -3 -4 -8 -10
-11 -5 -3 -10 -1 -10 4 0 6 5 11 10 11 6 0 10 -2 10 -4z"/>
<path d="M3996 5881 c-4 -5 3 -7 14 -4 23 6 26 13 6 13 -8 0 -17 -4 -20 -9z"/>
<path d="M3717 5814 c-10 -10 12 -34 32 -34 9 0 22 -5 29 -12 8 -8 15 -9 23
-1 7 7 1 12 -22 17 -17 3 -37 13 -43 22 -6 8 -15 12 -19 8z"/>
<path d="M3620 5755 c0 -8 7 -15 15 -15 8 0 15 7 15 15 0 8 -7 15 -15 15 -8 0
-15 -7 -15 -15z"/>
<path d="M3610 5720 c0 -5 5 -10 10 -10 6 0 10 5 10 10 0 6 -4 10 -10 10 -5 0
-10 -4 -10 -10z"/>
<path d="M3663 5703 c-15 -3 -23 -12 -23 -25 0 -20 1 -20 18 -5 10 10 24 17
30 17 7 0 12 5 12 10 0 6 -3 9 -7 9 -5 -1 -18 -4 -30 -6z"/>
<path d="M3688 5663 c-10 -2 -18 -13 -18 -24 0 -10 -4 -19 -10 -19 -5 0 -10 8
-10 18 0 14 -2 15 -10 2 -5 -8 -10 -18 -10 -22 0 -12 38 -9 45 2 4 6 15 8 26
5 21 -7 26 9 7 21 -9 6 -5 10 12 15 19 5 20 7 5 7 -11 0 -28 -2 -37 -5z"/>
<path d="M3755 5650 c3 -5 11 -10 16 -10 6 0 7 5 4 10 -3 6 -11 10 -16 10 -6
0 -7 -4 -4 -10z"/>
<path d="M3650 5590 c0 -5 5 -10 11 -10 5 0 7 5 4 10 -3 6 -8 10 -11 10 -2 0
-4 -4 -4 -10z"/>
<path d="M3745 5472 c-3 -3 -5 -32 -5 -64 l0 -58 60 0 60 0 0 55 c0 49 -2 55
-22 59 -43 9 -88 13 -93 8z m95 -62 l0 -40 -40 0 -40 0 0 40 0 40 40 0 40 0 0
-40z"/>
<path d="M3778 5433 c7 -3 16 -2 19 1 4 3 -2 6 -13 5 -11 0 -14 -3 -6 -6z"/>
<path d="M3808 5413 c7 -3 16 -2 19 1 4 3 -2 6 -13 5 -11 0 -14 -3 -6 -6z"/>
<path d="M3628 5453 c7 -3 16 -2 19 1 4 3 -2 6 -13 5 -11 0 -14 -3 -6 -6z"/>
<path d="M3685 5450 c-8 -13 5 -13 25 0 13 8 13 10 -2 10 -9 0 -20 -4 -23 -10z"/>
<path d="M3897 5453 c-11 -10 -8 -91 3 -98 6 -4 10 6 11 22 l1 28 14 -32 c8
-18 16 -33 19 -33 2 0 9 15 14 33 9 31 9 31 10 5 2 -50 21 -29 21 22 0 38 -4
50 -15 50 -9 0 -18 -12 -21 -30 -7 -31 -24 -32 -24 -1 0 21 -23 44 -33 34z"/>
<path d="M4139 5445 c-1 -8 0 -103 1 -117 0 -9 3 -8 9 2 11 19 10 120 -1 120
-4 0 -8 -2 -9 -5z"/>
<path d="M4600 5395 c0 -53 1 -55 28 -56 82 -5 77 -8 80 48 3 49 2 50 -29 57
-74 15 -79 12 -79 -49z m98 -2 c-3 -36 -5 -38 -40 -41 -38 -3 -40 -1 -40 43 0
32 3 35 43 35 l40 0 -3 -37z"/>
<path d="M4238 5429 c-8 -23 4 -87 15 -83 10 3 13 36 8 87 -1 11 -19 8 -23 -4z"/>
<path d="M4410 5396 c0 -25 5 -48 10 -51 6 -4 10 7 10 24 0 28 18 46 21 21 1
-5 3 -14 4 -20 1 -5 3 -15 4 -21 0 -5 5 -8 9 -5 16 10 0 68 -19 73 -11 3 -19
9 -19 14 0 5 -4 9 -10 9 -5 0 -10 -20 -10 -44z"/>
<path d="M4772 5429 c-17 -6 -22 -16 -22 -43 0 -21 6 -36 16 -40 8 -3 13 -10
10 -15 -4 -5 7 -4 24 2 33 13 45 36 36 72 -7 26 -32 36 -64 24z m46 -48 c-4
-35 -41 -37 -46 -2 -4 26 13 42 35 34 8 -3 13 -16 11 -32z"/>
<path d="M4009 5428 c-1 -2 -3 -22 -4 -45 -2 -39 -1 -41 20 -33 14 5 27 4 34
-3 6 -6 11 -7 11 -1 0 5 12 10 27 9 14 0 28 6 31 14 3 9 -1 11 -17 6 -17 -5
-21 -2 -21 14 0 24 10 27 28 9 9 -9 12 -8 12 4 0 42 -59 32 -61 -10 -1 -27 -1
-27 -8 3 -4 21 -13 31 -29 33 -12 2 -23 2 -23 0z"/>
<path d="M4170 5381 c0 -33 3 -42 10 -31 5 8 10 25 10 38 0 12 5 22 10 22 6 0
10 -13 10 -30 0 -16 5 -30 10 -30 12 0 13 50 2 65 -4 6 -17 10 -29 11 -21 1
-23 -4 -23 -45z"/>
<path d="M4350 5415 c0 -8 -4 -15 -10 -15 -5 0 -10 5 -10 11 0 6 -12 9 -27 7
-21 -2 -29 -9 -31 -27 -5 -32 23 -54 50 -40 13 7 23 7 32 0 8 -6 21 -8 30 -5
26 10 17 65 -11 75 -17 6 -23 5 -23 -6z m-32 -32 c-4 -22 -22 -20 -26 1 -2 10
3 16 13 16 10 0 15 -7 13 -17z m62 -13 c0 -5 -4 -10 -10 -10 -5 0 -10 5 -10
10 0 6 5 10 10 10 6 0 10 -4 10 -10z"/>
<path d="M4852 5383 c3 -40 6 -48 23 -48 13 0 22 8 25 24 8 38 30 38 30 1 0
-19 4 -29 10 -25 22 14 -1 78 -24 69 -8 -3 -16 2 -19 13 -4 16 -12 -38 -8 -59
0 -5 -3 -8 -9 -8 -5 0 -10 18 -10 40 0 22 -5 40 -11 40 -6 0 -9 -19 -7 -47z"/>
<path d="M3632 5400 c7 -10 14 -18 15 -16 6 6 -9 36 -18 36 -5 0 -4 -9 3 -20z"/>
<path d="M3517 5393 c-11 -10 -8 -18 13 -43 15 -17 20 -19 20 -8 0 9 -7 18
-15 22 -8 3 -15 10 -15 16 0 6 5 8 10 5 6 -3 10 -1 10 4 0 12 -13 14 -23 4z"/>
<path d="M4962 5368 c2 -28 7 -33 28 -33 21 0 25 5 25 30 0 25 -4 30 -28 33
-27 3 -28 1 -25 -30z"/>
<path d="M5030 5363 c0 -41 13 -35 24 10 5 20 3 27 -9 27 -11 0 -15 -11 -15
-37z"/>
<path d="M5072 5364 c0 -32 2 -35 26 -32 32 4 41 27 13 35 -12 3 -21 9 -21 13
0 5 10 6 22 2 14 -3 19 -2 14 6 -4 7 -18 12 -31 12 -20 0 -23 -5 -23 -36z m38
-14 c0 -5 -4 -10 -9 -10 -6 0 -13 5 -16 10 -3 6 1 10 9 10 9 0 16 -4 16 -10z"/>
<path d="M4070 5330 c-8 -5 -10 -10 -5 -10 6 0 17 5 25 10 8 5 11 10 5 10 -5
0 -17 -5 -25 -10z"/>
<path d="M1783 5053 c-13 -2 -23 -12 -23 -21 0 -12 3 -13 12 -4 17 17 113 15
148 -3 48 -25 33 -83 -23 -93 -14 -2 -16 3 -11 41 7 46 -10 73 -27 46 -8 -12
-10 -12 -18 0 -8 12 -12 12 -26 -2 -15 -15 -15 -17 -1 -17 9 0 16 -8 16 -19 0
-36 -12 -51 -40 -51 -41 0 -47 -18 -8 -22 l33 -3 -4 -86 c-3 -86 10 -127 23
-71 4 15 16 58 27 95 19 63 24 69 60 84 39 15 55 41 47 80 -7 39 -101 62 -185
46z m83 -121 c-13 -12 -17 8 -10 40 l9 33 3 -33 c2 -19 1 -36 -2 -40z m-14
-54 c-8 -8 -9 -4 -5 13 4 13 8 18 11 10 2 -7 -1 -18 -6 -23z"/>
<path d="M2310 5040 c0 -5 6 -10 13 -10 23 0 75 -55 87 -92 16 -52 6 -75 -48
-103 -35 -18 -41 -24 -25 -25 33 0 90 38 97 65 7 25 -18 111 -37 130 -39 37
-87 57 -87 35z"/>
<path d="M4467 5020 c-9 -19 -19 -62 -23 -95 -5 -54 -10 -64 -47 -98 l-41 -37
-28 34 c-20 24 -34 33 -48 29 -11 -3 -20 -10 -20 -17 0 -6 -3 -22 -6 -36 -4
-19 -1 -17 10 8 13 28 18 32 35 23 21 -12 36 -45 27 -60 -4 -5 0 -12 6 -14 10
-4 9 -8 -2 -17 -13 -9 -12 -11 5 -8 11 2 21 12 23 23 2 11 17 30 33 43 28 23
29 23 29 3 0 -26 21 -71 33 -71 5 0 18 -12 30 -26 20 -26 23 -26 103 -21 126
7 142 26 20 24 -85 -2 -100 0 -110 16 -9 15 -6 23 22 47 17 17 32 32 32 35 0
15 -28 1 -57 -27 -28 -27 -35 -30 -43 -18 -15 23 -12 50 9 94 37 78 51 119 50
145 0 23 -1 24 -9 6 -4 -11 -15 -42 -24 -70 l-15 -50 5 55 c4 30 11 63 16 73
5 10 7 23 5 30 -2 7 -11 -4 -20 -23z"/>
<path d="M3097 5024 c-4 -4 -7 -20 -7 -34 0 -15 -3 -42 -6 -60 -7 -31 -8 -32
-45 -26 -24 4 -39 2 -39 -4 0 -5 9 -10 19 -10 38 0 31 -19 -13 -40 -62 -28
-71 -26 -89 20 -16 42 -46 57 -91 46 -26 -6 -56 -60 -55 -98 0 -16 7 -7 22 30
12 29 30 55 39 58 26 8 57 -13 72 -49 12 -28 12 -34 -2 -44 -14 -12 -14 -13 1
-13 22 0 22 -12 -2 -27 -15 -9 -23 -9 -37 2 -22 17 -34 19 -34 6 0 -5 14 -14
32 -22 30 -12 33 -11 57 18 21 25 126 83 150 83 3 0 6 -22 6 -50 0 -33 6 -55
17 -66 16 -17 18 -17 24 0 4 10 0 22 -9 29 -12 9 -14 23 -10 60 l6 47 64 0
c76 0 77 16 1 19 -57 2 -68 11 -67 56 2 29 2 29 8 -5 6 -29 8 -32 14 -15 11
33 -10 105 -26 89z"/>
<path d="M2285 5000 c-3 -5 -1 -10 4 -10 6 0 11 5 11 10 0 6 -2 10 -4 10 -3 0
-8 -4 -11 -10z"/>
<path d="M3723 4998 c-6 -7 -14 -37 -18 -65 -7 -52 -7 -53 -41 -53 -19 0 -34
-4 -34 -10 0 -5 11 -10 25 -10 40 0 29 -13 -42 -52 l-68 -37 -17 40 c-11 25
-23 39 -35 39 -11 0 -14 -3 -7 -8 20 -13 34 -50 34 -88 l0 -37 25 27 c13 14
28 26 34 26 5 0 16 6 23 14 14 13 72 46 83 46 3 0 4 -3 4 -7 -1 -5 -1 -25 0
-45 2 -64 21 -42 21 23 l0 62 39 -7 c23 -3 42 -2 46 4 3 5 -3 10 -14 10 -10 0
-26 3 -35 6 -14 5 -14 9 0 36 26 50 6 123 -23 86z m13 -74 c-4 -13 -11 -24
-16 -24 -5 0 -8 6 -6 13 3 6 8 26 12 42 5 22 8 25 11 12 3 -10 2 -29 -1 -43z"/>
<path d="M2080 4988 c0 -7 -6 -24 -13 -38 -20 -39 -38 -120 -32 -141 8 -23 51
-25 100 -5 40 17 104 10 121 -12 14 -19 25 -3 29 41 1 18 6 57 9 87 8 69 -8
41 -24 -42 -6 -32 -14 -58 -16 -58 -3 0 -25 5 -49 11 -36 9 -48 8 -67 -5 -12
-9 -37 -16 -55 -16 -28 0 -33 3 -33 25 0 13 11 54 25 91 29 76 28 74 15 74 -5
0 -10 -6 -10 -12z"/>
<path d="M4005 4967 c-8 -12 -15 -34 -15 -49 0 -33 -18 -52 -75 -77 -46 -20
-65 -45 -65 -84 0 -39 29 -42 77 -8 24 17 43 27 43 22 0 -17 31 -41 52 -41 25
0 96 42 80 48 -6 2 -22 -4 -36 -13 -37 -25 -70 -16 -74 19 -2 16 1 32 6 35 18
12 52 90 51 118 -1 22 -5 15 -18 -26 -9 -30 -23 -57 -30 -59 -10 -3 -12 2 -8
19 4 13 7 32 7 42 0 10 11 29 24 42 18 18 20 25 10 29 -7 3 -20 -5 -29 -17z
m-35 -140 c0 -25 -22 -47 -70 -72 l-31 -16 3 27 c2 20 15 37 43 56 49 34 55
34 55 5z"/>
<path d="M3260 4858 c-53 -27 -75 -77 -48 -105 18 -17 53 -10 62 13 4 12 2 12
-14 4 -43 -23 -55 22 -16 59 33 31 88 42 120 25 27 -13 34 -6 14 14 -19 19
-69 14 -118 -10z"/>
<path d="M2188 4853 c7 -3 16 -2 19 1 4 3 -2 6 -13 5 -11 0 -14 -3 -6 -6z"/>
<path d="M4160 4845 c-1 -5 -4 -19 -5 -30 -2 -11 -6 -32 -10 -47 -4 -18 -3
-28 3 -28 13 0 25 58 19 91 -2 13 -5 20 -7 14z"/>
<path d="M3330 4816 c-14 -28 -7 -74 14 -82 7 -3 35 9 61 27 27 18 43 35 37
37 -7 2 -26 -8 -43 -23 -41 -34 -54 -28 -53 24 0 22 0 41 -1 41 -1 0 -7 -11
-15 -24z"/>
<path d="M1730 5578 c-11 -12 -20 -30 -20 -40 0 -22 39 -48 65 -43 11 2 25 4
31 4 10 1 34 43 34 61 0 5 -7 16 -16 24 -22 23 -70 20 -94 -6z"/>
<path d="M4595 6560 c3 -5 10 -10 16 -10 5 0 9 5 9 10 0 6 -7 10 -16 10 -8 0
-12 -4 -9 -10z"/>
<path d="M4945 6560 c3 -5 8 -10 11 -10 2 0 4 5 4 10 0 6 -5 10 -11 10 -5 0
-7 -4 -4 -10z"/>
<path d="M4605 6530 c3 -5 8 -10 11 -10 2 0 4 5 4 10 0 6 -5 10 -11 10 -5 0
-7 -4 -4 -10z"/>
<path d="M4945 6530 c3 -5 8 -10 11 -10 2 0 4 5 4 10 0 6 -5 10 -11 10 -5 0
-7 -4 -4 -10z"/>
<path d="M4445 6510 c-4 -6 7 -10 27 -10 25 0 29 3 18 10 -19 13 -37 13 -45 0z"/>
<path d="M4875 6509 c-11 -16 -1 -19 13 -3 7 8 8 14 3 14 -5 0 -13 -5 -16 -11z"/>
<path d="M4775 6501 c-3 -6 3 -9 14 -8 11 0 17 5 15 9 -7 11 -22 10 -29 -1z"/>
<path d="M4910 6491 c0 -5 9 -11 20 -14 12 -3 20 -14 20 -27 0 -17 -4 -21 -20
-17 -11 3 -23 1 -26 -4 -3 -5 9 -9 25 -9 26 0 31 4 31 24 0 37 -10 56 -31 56
-10 0 -19 -4 -19 -9z"/>
<path d="M4830 6465 c0 -8 4 -15 10 -15 5 0 7 7 4 15 -4 8 -8 15 -10 15 -2 0
-4 -7 -4 -15z"/>
<path d="M4775 6420 c-3 -5 1 -10 9 -10 9 0 16 5 16 10 0 6 -4 10 -9 10 -6 0
-13 -4 -16 -10z"/>
<path d="M4810 6380 c0 -18 4 -29 10 -25 6 3 10 15 10 25 0 10 -4 22 -10 25
-6 4 -10 -7 -10 -25z"/>
<path d="M4920 6400 c0 -5 14 -10 31 -10 17 0 28 4 24 10 -3 6 -17 10 -31 10
-13 0 -24 -4 -24 -10z"/>
<path d="M4655 6370 c4 -6 11 -8 16 -5 14 9 11 15 -7 15 -8 0 -12 -5 -9 -10z"/>
<path d="M4920 6370 c0 -5 5 -10 11 -10 5 0 7 5 4 10 -3 6 -8 10 -11 10 -2 0
-4 -4 -4 -10z"/>
<path d="M4862 6333 c6 -8 15 -12 20 -11 15 5 5 22 -14 23 -14 1 -15 -1 -6
-12z"/>
<path d="M5008 6333 c7 -3 16 -2 19 1 4 3 -2 6 -13 5 -11 0 -14 -3 -6 -6z"/>
<path d="M4710 6285 c7 -9 15 -13 17 -11 7 7 -7 26 -19 26 -6 0 -6 -6 2 -15z"/>
<path d="M5040 6259 c0 -4 4 -10 9 -13 5 -3 6 -27 3 -52 -4 -37 -2 -46 9 -42
8 3 14 19 14 39 0 28 4 35 23 37 17 3 22 -2 23 -20 1 -18 3 -16 10 11 6 18 9
34 7 36 -9 7 -98 11 -98 4z"/>
<path d="M4877 6253 c-4 -3 -7 -11 -7 -17 0 -6 5 -5 12 2 6 6 9 14 7 17 -3 3
-9 2 -12 -2z"/>
<path d="M4990 6225 c0 -8 5 -15 10 -15 6 0 10 7 10 15 0 8 -4 15 -10 15 -5 0
-10 -7 -10 -15z"/>
<path d="M5090 6190 c0 -5 5 -10 11 -10 5 0 7 5 4 10 -3 6 -8 10 -11 10 -2 0
-4 -4 -4 -10z"/>
<path d="M4815 6179 c-4 -6 -5 -13 -2 -16 7 -7 27 6 27 18 0 12 -17 12 -25 -2z"/>
<path d="M4872 6183 c-6 -3 -9 -9 -6 -15 4 -6 10 -5 15 3 7 11 9 10 9 -3 0
-11 8 -18 20 -18 11 0 20 4 20 8 0 12 -42 30 -58 25z"/>
<path d="M5010 6165 c0 -8 5 -15 10 -15 6 0 10 7 10 15 0 8 -4 15 -10 15 -5 0
-10 -7 -10 -15z"/>
<path d="M4855 6140 c-3 -5 1 -10 9 -10 9 0 16 5 16 10 0 6 -4 10 -9 10 -6 0
-13 -4 -16 -10z"/>
<path d="M4635 6110 c-3 -5 -1 -10 4 -10 6 0 11 5 11 10 0 6 -2 10 -4 10 -3 0
-8 -4 -11 -10z"/>
<path d="M4675 6110 c-3 -5 -1 -10 4 -10 6 0 11 5 11 10 0 6 -2 10 -4 10 -3 0
-8 -4 -11 -10z"/>
<path d="M4930 6110 c0 -5 7 -10 16 -10 8 0 12 5 9 10 -3 6 -10 10 -16 10 -5
0 -9 -4 -9 -10z"/>
<path d="M2660 2270 c0 -5 7 -7 15 -4 8 4 15 8 15 10 0 2 -7 4 -15 4 -8 0 -15
-4 -15 -10z"/>
<path d="M2630 2259 c0 -5 5 -7 10 -4 6 3 10 8 10 11 0 2 -4 4 -10 4 -5 0 -10
-5 -10 -11z"/>
<path d="M2706 2258 c5 -8 2 -9 -10 -5 -10 4 -15 3 -11 -3 3 -6 17 -10 31 -10
23 0 24 2 10 15 -17 18 -30 20 -20 3z"/>
<path d="M2765 2260 c3 -5 11 -10 16 -10 6 0 7 5 4 10 -3 6 -11 10 -16 10 -6
0 -7 -4 -4 -10z"/>
<path d="M2700 2204 c0 -10 -6 -14 -15 -11 -8 4 -17 2 -20 -3 -3 -5 13 -8 36
-8 32 0 38 3 25 10 -9 5 -14 13 -11 19 4 5 1 9 -4 9 -6 0 -11 -7 -11 -16z"/>
<path d="M2813 2213 c9 -2 23 -2 30 0 6 3 -1 5 -18 5 -16 0 -22 -2 -12 -5z"/>
<path d="M2750 2200 c0 -5 7 -10 15 -10 8 0 15 5 15 10 0 6 -7 10 -15 10 -8 0
-15 -4 -15 -10z"/>
<path d="M1661 694 c0 -11 3 -14 6 -6 3 7 2 16 -1 19 -3 4 -6 -2 -5 -13z"/>
<path d="M1985 600 c3 -5 12 -7 20 -3 21 7 19 13 -6 13 -11 0 -18 -4 -14 -10z"/>
<path d="M2145 560 c-3 -5 3 -10 14 -10 12 0 21 5 21 10 0 6 -6 10 -14 10 -8
0 -18 -4 -21 -10z"/>
<path d="M2296 545 c4 -8 8 -15 11 -15 2 0 11 7 19 15 14 13 13 15 -10 15 -18
0 -24 -4 -20 -15z"/>
<path d="M2210 539 c0 -6 9 -8 23 -4 20 6 21 5 4 -8 -17 -14 -16 -15 3 -20 16
-4 20 0 20 19 0 19 -5 24 -25 24 -14 0 -25 -5 -25 -11z"/>
<path d="M2160 529 c0 -5 5 -7 10 -4 6 3 10 8 10 11 0 2 -4 4 -10 4 -5 0 -10
-5 -10 -11z"/>
<path d="M2013 523 c9 -2 23 -2 30 0 6 3 -1 5 -18 5 -16 0 -22 -2 -12 -5z"/>
<path d="M2000 490 c0 -5 10 -10 23 -10 18 0 19 2 7 10 -19 13 -30 13 -30 0z"/>
<path d="M2134 488 c-3 -4 2 -9 10 -9 9 -1 21 -2 26 -3 6 -1 9 3 8 9 -4 12
-37 15 -44 3z"/>
<path d="M2130 445 c0 -15 48 -40 58 -31 2 3 -7 8 -22 12 -28 7 -34 19 -13 27
7 3 5 6 -5 6 -10 1 -18 -6 -18 -14z"/>
<path d="M2250 390 c-13 -9 -13 -12 3 -21 9 -6 15 -14 12 -20 -7 -10 15 -12
39 -3 23 9 9 24 -21 24 -18 0 -24 4 -19 15 6 18 6 18 -14 5z"/>
<path d="M2191 354 c0 -11 3 -14 6 -6 3 7 2 16 -1 19 -3 4 -6 -2 -5 -13z"/>
<path d="M3135 230 c-3 -5 1 -10 10 -10 9 0 13 5 10 10 -3 6 -8 10 -10 10 -2
0 -7 -4 -10 -10z"/>
<path d="M3257 175 c13 -28 19 -32 25 -21 6 10 2 22 -12 36 -29 29 -32 25 -13
-15z"/>
<path d="M3056 185 c4 -8 10 -15 15 -15 5 0 9 7 9 15 0 8 -7 15 -15 15 -9 0
-12 -6 -9 -15z"/>
<path d="M3475 160 c-3 -5 -1 -10 4 -10 6 0 11 5 11 10 0 6 -2 10 -4 10 -3 0
-8 -4 -11 -10z"/>
<path d="M3590 148 c0 -9 5 -20 10 -23 13 -8 13 5 0 25 -8 13 -10 13 -10 -2z"/>
<path d="M3115 110 c-3 -5 -1 -10 4 -10 6 0 11 5 11 10 0 6 -2 10 -4 10 -3 0
-8 -4 -11 -10z"/>
<path d="M3500 110 c-8 -5 -12 -11 -9 -14 2 -3 11 -1 19 4 8 5 12 11 9 14 -2
3 -11 1 -19 -4z"/>
<path d="M3350 89 c0 -5 5 -7 10 -4 6 3 10 8 10 11 0 2 -4 4 -10 4 -5 0 -10
-5 -10 -11z"/>
<path d="M3905 80 c-3 -5 -1 -10 4 -10 6 0 11 5 11 10 0 6 -2 10 -4 10 -3 0
-8 -4 -11 -10z"/>
<path d="M3450 71 c0 -5 5 -13 10 -16 6 -3 10 -2 10 4 0 5 -4 13 -10 16 -5 3
-10 2 -10 -4z"/>
<path d="M3515 50 c3 -5 8 -10 11 -10 2 0 4 5 4 10 0 6 -5 10 -11 10 -5 0 -7
-4 -4 -10z"/>
<path d="M3920 49 c0 -5 5 -7 10 -4 6 3 10 8 10 11 0 2 -4 4 -10 4 -5 0 -10
-5 -10 -11z"/>
<path d="M3423 23 c-7 -2 -13 -9 -13 -14 0 -14 30 -11 46 6 14 13 13 15 -3 14
-10 0 -24 -3 -30 -6z"/>
<path d="M3788 23 c6 -2 18 -2 25 0 6 3 1 5 -13 5 -14 0 -19 -2 -12 -5z"/>
<path d="M3841 14 c0 -11 3 -14 6 -6 3 7 2 16 -1 19 -3 4 -6 -2 -5 -13z"/>
<path d="M3608 8 c9 -9 15 -9 24 0 9 9 7 12 -12 12 -19 0 -21 -3 -12 -12z"/>
</g>
</svg>
