<?xml version="1.0" standalone="no"?>
<!DOCTYPE svg PUBLIC "-//W3C//DTD SVG 20010904//EN"
 "http://www.w3.org/TR/2001/REC-SVG-20010904/DTD/svg10.dtd">
<svg version="1.0" xmlns="http://www.w3.org/2000/svg"
 width="400.000000pt" height="322.000000pt" viewBox="0 0 400.000000 322.000000"
 preserveAspectRatio="xMidYMid meet">

<g transform="translate(0.000000,322.000000) scale(0.100000,-0.100000)"
fill="#000000" stroke="none">
<path d="M3 2870 c0 -192 3 -350 7 -350 3 0 7 -34 8 -75 1 -41 6 -83 11 -93 5
-9 12 -48 16 -86 5 -59 4 -68 -8 -58 -8 7 -15 27 -16 44 -2 18 -3 41 -4 51 -1
9 -5 17 -9 17 -11 0 -10 -46 2 -95 6 -25 5 -44 0 -49 -13 -13 -13 -26 1 -26 5
0 7 5 4 10 -3 6 1 10 9 10 13 0 16 -12 16 -57 0 -32 3 -69 7 -83 3 -15 2 -22
-3 -17 -5 5 -10 13 -10 18 -1 5 -2 14 -3 20 0 5 -5 8 -10 5 -5 -4 -11 0 -14 6
-2 7 -4 -76 -4 -185 -1 -174 1 -196 14 -185 13 10 13 7 0 -25 -15 -35 -15 -37
6 -53 17 -12 19 -17 8 -21 -10 -4 -8 -10 10 -24 26 -20 10 -26 -22 -9 -17 10
-19 7 -19 -24 0 -38 14 -54 34 -37 9 8 20 3 42 -20 16 -17 23 -29 14 -27 -8 2
-14 -3 -12 -9 3 -17 -8 -16 -32 2 -11 8 -15 19 -11 27 5 7 -2 3 -13 -9 l-22
-22 0 -720 0 -721 2000 0 2000 0 0 279 0 279 -25 4 c-17 4 -25 0 -27 -11 -3
-13 -7 -12 -26 7 -24 24 -29 66 -10 78 7 5 8 2 3 -7 -5 -8 -4 -11 0 -6 5 4 14
23 21 43 10 30 10 36 -2 41 -12 4 -11 10 7 29 12 13 19 24 16 24 -4 0 0 11 9
25 14 21 15 31 6 50 -13 28 -52 35 -52 9 0 -9 5 -12 12 -8 7 4 8 3 4 -4 -5 -9
-13 -9 -27 -2 -10 6 -19 8 -19 5 0 -19 -29 27 -35 55 -7 31 -6 33 9 21 14 -12
16 -11 16 7 0 11 -8 23 -18 26 -10 4 -29 31 -42 63 -13 30 -37 71 -54 91 -16
19 -31 41 -32 49 -3 21 -16 30 -21 16 -3 -7 -14 -13 -26 -13 -39 0 -67 -12
-67 -27 0 -11 4 -13 13 -6 20 16 51 12 77 -9 14 -11 20 -17 13 -14 -7 4 -9 -1
-6 -15 6 -21 7 -21 19 -4 11 15 15 12 37 -32 40 -80 41 -97 7 -110 -17 -6 -30
-16 -30 -22 0 -15 33 -14 48 1 17 17 23 6 26 -56 4 -53 2 -56 -17 -50 -16 5
-19 3 -14 -10 4 -10 3 -15 -3 -11 -15 10 -12 -18 6 -43 8 -12 24 -22 35 -22
10 0 19 -7 19 -15 0 -9 -6 -12 -17 -8 -10 4 -14 2 -10 -4 5 -7 0 -9 -13 -6
-11 3 -23 17 -26 32 -12 52 -16 63 -35 82 -11 11 -21 14 -25 8 -3 -6 -16 -14
-28 -18 -18 -7 -23 -3 -36 33 -14 37 -19 41 -51 41 l-36 0 4 70 c2 39 9 111
14 160 5 50 20 203 34 340 33 350 133 1318 149 1449 15 124 13 144 -20 156
-22 9 -148 5 -222 -6 -28 -4 -32 -7 -21 -20 7 -8 18 -13 25 -10 7 3 18 -1 24
-9 7 -8 33 -13 72 -14 82 0 90 -10 78 -86 -5 -33 -14 -100 -20 -150 -16 -144
-21 -179 -29 -188 -9 -9 -5 98 4 113 3 5 4 14 1 19 -9 14 -54 10 -60 -6 -3 -8
-2 -11 4 -8 5 3 14 -3 19 -14 9 -16 8 -19 -7 -16 -9 1 -23 -3 -31 -9 -8 -6
-16 -10 -19 -8 -3 1 -7 -4 -8 -13 -1 -8 1 -13 5 -11 4 3 12 -3 18 -13 12 -19
10 -20 -54 -24 -30 -2 -60 -17 -33 -17 7 0 10 -3 7 -7 -4 -3 -16 2 -27 12 -26
24 -25 11 2 -28 12 -17 17 -27 11 -24 -7 4 -15 2 -19 -4 -4 -8 -9 -7 -15 2 -7
11 -9 10 -9 -3 0 -21 -1 -21 -34 -8 -21 8 -26 6 -26 -6 0 -8 5 -12 10 -9 14 9
13 -1 -5 -35 -9 -18 -11 -30 -5 -33 6 -3 5 -4 -2 -3 -7 2 -12 10 -10 17 1 8
-4 5 -13 -5 -14 -18 -15 -11 -15 85 0 98 -1 105 -20 105 -11 0 -20 -6 -20 -13
0 -7 -7 -13 -16 -13 -8 0 -13 -4 -10 -8 3 -5 -8 -6 -25 -4 -16 2 -36 -1 -44
-8 -8 -6 -19 -9 -25 -5 -5 3 -10 1 -10 -5 0 -6 -5 -8 -10 -5 -6 4 -10 3 -9 -2
2 -13 -13 -53 -20 -53 -4 0 -12 5 -19 12 -17 17 -19 11 -26 -76 -4 -43 -8 -82
-11 -86 -6 -9 -36 -397 -50 -640 -2 -47 -8 -114 -11 -150 -6 -57 -8 -62 -16
-37 -5 15 -14 27 -19 27 -6 0 -6 -8 1 -19 6 -12 6 -29 2 -42 l-9 -22 -16 24
c-9 13 -17 19 -17 13 0 -5 5 -15 11 -21 7 -7 9 -23 4 -40 l-7 -28 -12 30 c-12
28 -13 29 -18 7 -3 -12 -2 -22 4 -22 5 0 8 -6 5 -12 -2 -7 0 -21 5 -30 6 -14
5 -16 -7 -12 -8 4 -15 10 -15 15 0 5 -5 9 -11 9 -9 0 -7 -16 8 -57 7 -19 -18
-16 -32 4 -13 17 -36 10 -34 -10 0 -7 3 -7 6 2 4 9 10 2 19 -19 21 -48 17 -54
-17 -29 l-32 22 7 -39 c4 -21 14 -43 22 -47 16 -9 19 -27 5 -27 -5 0 -18 15
-30 32 -11 18 -21 27 -21 21 0 -9 -7 -10 -25 -3 -15 6 -26 6 -30 -1 -4 -5 -11
-7 -16 -4 -13 9 -11 -9 3 -23 16 -16 31 -15 22 1 -6 9 -5 9 8 0 8 -7 18 -10
21 -7 3 4 9 -6 13 -20 9 -35 3 -39 -31 -22 -21 11 -34 12 -49 5 -68 -33 -86
-45 -86 -53 0 -6 -6 -4 -12 3 -11 10 -10 15 4 25 10 7 18 19 18 25 0 7 5 9 10
6 6 -3 10 3 10 14 0 14 -5 19 -15 15 -8 -4 -15 -11 -15 -18 0 -6 -14 -24 -30
-40 -17 -16 -30 -35 -30 -43 0 -7 -4 -13 -9 -13 -4 0 -6 11 -3 25 2 15 0 25
-7 25 -6 0 -11 -4 -11 -10 0 -5 -6 -7 -14 -4 -8 3 -17 1 -21 -5 -3 -6 -11 -11
-16 -11 -6 0 -8 4 -4 9 3 5 1 12 -5 16 -5 3 -10 0 -10 -8 0 -10 -11 -14 -34
-14 -19 1 -32 5 -30 9 3 4 1 8 -5 8 -5 0 -13 -4 -16 -10 -9 -15 -25 -12 -25 5
0 16 -12 20 -24 8 -11 -11 -51 -11 -58 1 -6 8 -10 8 -15 0 -9 -13 -47 -2 -58
15 -10 16 -25 13 -25 -5 0 -14 -3 -14 -16 -4 -20 18 -64 22 -64 7 -1 -7 -6 -6
-13 4 -7 9 -19 16 -27 16 -54 3 -83 12 -96 32 -10 14 -22 20 -33 16 -10 -3
-24 1 -31 10 -11 13 -15 13 -21 3 -7 -10 -9 -9 -9 5 0 9 -4 17 -10 17 -5 0
-10 -4 -10 -10 0 -17 -28 1 -33 22 -5 16 -13 19 -44 17 -29 -2 -49 4 -74 21
-18 14 -41 23 -51 22 -9 -2 -28 4 -41 13 -13 8 -32 13 -41 9 -10 -4 -18 0 -22
10 -3 9 -10 13 -15 11 -4 -3 -17 3 -29 15 -11 11 -31 20 -44 20 -13 0 -29 7
-36 15 -7 8 -9 15 -4 15 4 0 -1 7 -12 15 -10 8 -37 15 -59 16 -22 1 -32 3 -22
6 42 11 -4 39 -53 31 -13 -2 -25 3 -27 10 -3 6 3 12 14 12 14 0 12 4 -9 18
-16 9 -28 23 -28 31 0 10 -8 12 -29 8 -31 -7 -51 7 -51 36 0 10 -4 16 -9 12
-14 -8 -23 12 -27 57 -1 23 -10 45 -19 52 -19 14 -26 88 -11 119 5 11 4 17 -3
17 -6 0 -11 -8 -11 -17 0 -15 -2 -16 -10 -3 -6 9 -5 17 1 21 6 3 13 34 16 68
3 33 9 61 13 61 4 0 11 -20 14 -45 4 -25 12 -45 18 -45 6 0 8 11 4 28 -10 47
-16 161 -7 127 l9 -30 1 32 c1 21 6 32 14 30 7 -1 13 11 15 31 3 27 7 32 22
27 24 -8 35 11 14 23 -15 8 -15 10 2 16 9 4 20 2 24 -4 4 -6 19 2 37 20 22 22
33 27 37 18 4 -9 8 -9 11 -2 3 6 18 9 33 6 18 -2 33 2 41 12 11 14 11 16 -5
16 -14 0 -15 3 -6 12 9 9 17 10 30 1 14 -8 23 -7 41 8 12 10 20 23 17 28 -6 9
15 14 123 27 31 3 48 9 41 14 -9 6 -10 9 0 15 7 4 16 2 20 -5 6 -9 10 -6 15
10 5 16 9 19 15 10 10 -16 63 -4 57 13 -2 6 1 17 7 23 8 8 14 7 23 -5 11 -14
12 -14 13 -1 0 13 1 13 10 0 8 -13 10 -13 10 2 0 10 6 15 13 13 17 -6 44 17
57 49 7 18 15 26 25 22 8 -3 21 1 29 9 8 8 23 15 34 15 11 0 22 7 26 15 3 8
15 15 26 15 14 0 20 7 20 21 0 18 2 19 15 9 13 -10 15 -9 15 9 0 19 4 21 23
15 38 -12 51 -10 52 10 0 14 9 20 30 23 17 2 38 13 47 24 9 11 20 19 25 18 4
-1 19 -1 33 0 18 1 21 4 12 10 -11 7 -11 9 2 14 10 4 16 1 16 -8 0 -16 16 -20
24 -7 6 11 -5 28 -24 35 -8 3 77 6 190 6 128 1 200 5 191 10 -12 8 -10 11 10
16 14 3 29 5 35 4 5 -1 61 -1 124 1 75 1 108 4 95 10 -17 7 -17 9 -2 9 9 1 17
7 17 14 0 19 57 50 63 35 3 -8 6 -6 6 5 1 20 -3 21 -31 6 -22 -12 -49 3 -29
15 6 4 11 16 11 27 0 11 7 22 15 26 12 4 8 11 -20 30 -19 13 -35 27 -35 32 0
9 81 21 143 21 20 0 54 9 74 20 l38 20 -250 0 c-138 -1 -504 -5 -815 -10 -311
-5 -899 -12 -1307 -16 l-743 -7 0 26 c0 19 4 25 15 21 8 -4 15 -10 15 -16 0
-5 -5 -6 -10 -3 -5 3 -10 1 -10 -4 0 -6 7 -11 16 -11 12 0 14 7 9 30 -4 17 -3
30 2 30 5 0 14 -13 20 -30 9 -23 18 -30 37 -30 31 0 33 10 6 33 -26 22 -26 47
0 54 11 3 20 10 20 15 0 5 10 8 23 6 13 -2 22 2 21 10 -1 6 -2 19 -2 28 -1 10
-8 14 -16 11 -8 -3 -19 0 -25 7 -6 8 -25 12 -41 11 -19 -2 -30 2 -30 11 0 20
-21 28 -31 13 -6 -10 -9 -11 -9 -1 0 6 -4 12 -10 12 -5 0 -8 -17 -7 -37 2 -31
-2 -38 -18 -40 -19 -3 -19 -3 -1 5 14 6 16 11 8 16 -7 4 -10 17 -6 32 5 21 3
24 -19 24 l-25 0 1 -350z m100 280 l6 -35 -14 30 c-7 17 -11 34 -8 38 7 12 9
7 16 -33z m34 -2 c-3 -8 -6 -5 -6 6 -1 11 2 17 5 13 3 -3 4 -12 1 -19z m53 -2
c0 -24 -16 -43 -26 -33 -8 7 7 57 17 57 5 0 9 -11 9 -24z m-131 -125 c2 -46
-11 -13 -14 36 -3 39 -2 42 5 18 4 -16 8 -41 9 -54z m109 -183 c12 -12 92 -19
92 -7 0 4 7 10 16 13 14 5 15 4 5 -8 -7 -8 -8 -16 -3 -18 5 -1 6 -12 1 -23 -7
-18 -8 -18 -9 5 l-2 25 -8 -25 -8 -25 -2 25 -2 25 -8 -25 c-8 -25 -8 -25 -9
-2 -1 13 -5 21 -11 17 -5 -3 -7 -12 -4 -19 3 -8 -3 -12 -18 -11 -13 1 -28 -2
-34 -6 -7 -6 -17 -3 -25 8 -12 15 -12 16 4 10 22 -8 22 2 0 18 -9 7 -13 17 -9
23 9 15 19 15 34 0z m164 -33 c3 -14 1 -25 -3 -25 -5 0 -9 10 -9 23 0 18 -2
19 -10 7 -5 -8 -10 -10 -10 -4 0 12 10 24 21 24 3 0 9 -11 11 -25z m-216 4 c3
-6 2 -15 -2 -19 -12 -12 -38 5 -30 19 9 14 23 14 32 0z m2457 -66 c-7 -2 -19
-2 -25 0 -7 3 -2 5 12 5 14 0 19 -2 13 -5z m-2385 -198 l0 -40 -8 40 c-4 22
-10 76 -13 120 l-6 80 14 -80 c7 -44 13 -98 13 -120z m2052 169 c0 -2 -9 -4
-20 -4 -11 0 -20 4 -20 9 0 5 9 7 20 4 11 -3 20 -7 20 -9z m-1803 -56 c-2 -13
-4 -5 -4 17 -1 22 1 32 4 23 2 -10 2 -28 0 -40z m3103 -142 c0 -2 -7 -7 -16
-10 -8 -3 -12 -2 -9 4 6 10 25 14 25 6z m117 -18 c-3 -8 -6 -5 -6 6 -1 11 2
17 5 13 3 -3 4 -12 1 -19z m-231 -45 c-2 -15 -8 -29 -14 -31 -8 -2 -9 5 -1 27
13 38 19 39 15 4z m-1593 0 c-7 -2 -19 -2 -25 0 -7 3 -2 5 12 5 14 0 19 -2 13
-5z m-273 -83 c0 -11 -4 -20 -9 -20 -5 0 -7 9 -4 20 3 11 7 20 9 20 2 0 4 -9
4 -20z m30 -10 c0 -5 -4 -10 -10 -10 -5 0 -10 5 -10 10 0 6 5 10 10 10 6 0 10
-4 10 -10z m-1307 -47 c3 -5 7 -21 8 -38 4 -30 3 -30 -43 -29 -55 0 -53 -1
-61 42 l-6 32 49 0 c27 0 51 -3 53 -7z m3064 -25 c-3 -7 -5 -2 -5 12 0 14 2
19 5 13 2 -7 2 -19 0 -25z m-3045 -103 c10 -39 1 -46 -54 -39 -41 6 -47 9 -50
35 -6 38 -2 40 51 37 40 -3 45 -6 53 -33z m-227 -173 c-12 -12 -16 11 -20 94
l-4 89 15 -89 c8 -49 12 -92 9 -94z m1065 108 c0 -5 -2 -10 -4 -10 -3 0 -8 5
-11 10 -3 6 -1 10 4 10 6 0 11 -4 11 -10z m-830 -12 c0 -7 3 -23 6 -36 6 -22
5 -23 -47 -20 -53 3 -54 4 -57 36 l-3 32 50 0 c34 0 51 -4 51 -12z m790 -78
c0 -5 -4 -10 -10 -10 -5 0 -10 5 -10 10 0 6 5 10 10 10 6 0 10 -4 10 -10z
m-783 -15 c2 -1 6 -16 9 -33 6 -31 5 -32 -27 -32 -64 0 -79 9 -79 46 l0 34 48
-7 c26 -3 48 -7 49 -8z m-267 -41 c12 -32 12 -34 0 -34 -5 0 -10 11 -10 24 0
13 -6 27 -12 29 -10 4 -10 6 0 6 7 1 17 -11 22 -25z m40 -34 c0 -16 -2 -30 -4
-30 -2 0 -6 14 -8 30 -3 17 -1 30 4 30 4 0 8 -13 8 -30z m242 -34 c18 -41 6
-53 -48 -47 -47 6 -49 8 -52 39 -3 32 -3 32 43 32 38 0 47 -4 57 -24z m-242
-31 c0 -8 -4 -15 -10 -15 -5 0 -7 7 -4 15 4 8 8 15 10 15 2 0 4 -7 4 -15z m21
-113 c-5 -2 -6 -16 -1 -33 5 -16 5 -29 0 -29 -11 0 -18 41 -18 105 l-1 50 14
-45 c8 -25 10 -46 6 -48z m946 26 c-3 -7 -5 -2 -5 12 0 14 2 19 5 13 2 -7 2
-19 0 -25z m-1017 -45 c0 -13 -3 -13 -15 -3 -8 7 -12 16 -9 21 8 13 24 1 24
-18z m15 -53 c3 -5 1 -10 -4 -10 -6 0 -11 5 -11 10 0 6 2 10 4 10 3 0 8 -4 11
-10z m1045 -11 c0 -18 -2 -20 -15 -9 -13 11 -13 15 -3 21 18 12 18 12 18 -12z
m-1020 -19 c0 -5 -6 -10 -12 -10 -10 0 -10 -2 0 -9 10 -6 9 -10 -7 -14 -12 -3
-21 -4 -21 -2 0 2 -3 10 -6 18 -3 10 2 17 13 20 30 8 33 7 33 -3z m47 -72 c-3
-8 -6 -5 -6 6 -1 11 2 17 5 13 3 -3 4 -12 1 -19z m-40 -30 c-3 -8 -6 -5 -6 6
-1 11 2 17 5 13 3 -3 4 -12 1 -19z m23 -28 c0 -5 -4 -10 -10 -10 -5 0 -10 5
-10 10 0 6 5 10 10 10 6 0 10 -4 10 -10z m28 -36 c2 -20 6 -42 9 -48 4 -7 3
-8 -4 -1 -13 12 -27 99 -15 91 4 -2 9 -21 10 -42z m2882 -71 c0 -32 -5 -28
-14 10 -4 19 -3 26 4 22 5 -3 10 -18 10 -32z m-2873 -45 c-3 -8 -6 -5 -6 6 -1
11 2 17 5 13 3 -3 4 -12 1 -19z m-37 -14 c0 -2 -8 0 -19 5 -10 6 -22 7 -26 3
-5 -4 -5 -1 -1 6 5 9 12 9 27 2 10 -6 19 -13 19 -16z m-83 -26 c-3 -7 -5 -2
-5 12 0 14 2 19 5 13 2 -7 2 -19 0 -25z m135 -12 c2 -19 1 -33 -3 -30 -9 5
-17 64 -8 64 4 0 9 -15 11 -34z m-55 -88 c-3 -8 -6 -5 -6 6 -1 11 2 17 5 13 3
-3 4 -12 1 -19z m40 -40 c-3 -8 -6 -5 -6 6 -1 11 2 17 5 13 3 -3 4 -12 1 -19z
m3433 -378 c0 -5 -2 -10 -4 -10 -3 0 -8 5 -11 10 -3 6 -1 10 4 10 6 0 11 -4
11 -10z m180 -125 c7 -33 15 -76 17 -95 4 -32 4 -34 -9 -15 -8 11 -26 52 -40
91 -24 66 -25 73 -10 88 20 20 26 11 42 -69z m140 24 c0 -6 -4 -7 -10 -4 -5 3
-10 11 -10 16 0 6 5 7 10 4 6 -3 10 -11 10 -16z m-202 -49 c13 -21 16 -19 -53
-33 -11 -3 0 -5 25 -6 44 -2 45 -2 24 -19 -12 -10 -29 -33 -38 -50 -18 -36
-28 -39 -46 -17 -16 20 -23 19 -37 -4 -11 -17 -9 -19 18 -14 18 2 29 0 29 -8
0 -8 4 -8 15 1 8 7 15 9 15 4 0 -4 7 1 15 12 14 18 15 18 14 -11 0 -16 2 -40
6 -52 5 -15 3 -23 -4 -23 -6 0 -11 -5 -11 -11 0 -5 5 -7 10 -4 6 3 10 -1 10
-10 0 -9 -4 -14 -9 -11 -5 3 -11 -4 -15 -17 -3 -12 -1 -23 4 -25 12 -4 13 -52
1 -71 -7 -11 -10 -10 -18 4 -5 9 -13 16 -16 16 -30 -4 -47 1 -47 15 0 10 6 13
18 10 13 -5 22 1 30 18 6 14 7 28 2 31 -5 3 -12 -4 -15 -16 -6 -18 -8 -18 -18
-5 -17 22 -31 8 -46 -44 -12 -42 -14 -43 -28 -25 -14 20 -14 55 3 220 10 94
16 99 67 63 17 -12 27 -17 24 -11 -4 7 1 13 13 16 17 4 17 5 -2 4 -35 -2 -78
31 -78 59 0 21 4 23 35 19 20 -2 46 0 58 5 31 12 31 12 45 -10z m162 -52 c0
-18 -5 -28 -14 -28 -8 0 -17 -6 -20 -12 -3 -7 -5 -1 -3 14 3 19 0 25 -10 21
-8 -3 -13 2 -13 13 0 14 7 19 30 19 26 0 30 -4 30 -27z m14 -94 c9 -23 7 -46
-3 -40 -11 7 -21 56 -11 56 4 0 11 -7 14 -16z m111 -11 c-2 -10 -4 -25 -4 -33
-1 -13 -3 -13 -10 -1 -6 9 -6 22 0 33 12 23 18 23 14 1z m-147 -78 c0 -16 -2
-15 -8 5 -11 34 -11 60 0 35 5 -11 8 -29 8 -40z m-1200 -112 c-10 -2 -26 -2
-35 0 -10 3 -2 5 17 5 19 0 27 -2 18 -5z m1042 -68 c0 -2 -9 -3 -19 -2 -11 0
-18 5 -15 9 4 6 34 0 34 -7z m-1315 -35 c3 -5 -3 -10 -15 -10 -12 0 -18 5 -15
10 3 6 10 10 15 10 5 0 12 -4 15 -10z m1325 -20 c0 -5 -8 -10 -17 -10 -15 0
-16 2 -3 10 19 12 20 12 20 0z m-1325 -10 c4 -6 -6 -10 -24 -10 -16 0 -33 5
-36 10 -4 6 6 10 24 10 16 0 33 -4 36 -10z m1275 -10 c0 -5 -5 -10 -11 -10 -5
0 -7 5 -4 10 3 6 8 10 11 10 2 0 4 -4 4 -10z m-1235 -50 c0 -10 -12 -16 -40
-18 -57 -5 -105 6 -105 24 0 12 13 14 73 12 56 -2 72 -6 72 -18z"/>
<path d="M161 2811 c13 -11 26 -18 28 -15 7 7 -21 34 -36 34 -10 0 -8 -6 8
-19z"/>
<path d="M230 2299 c-19 -5 -21 -7 -6 -8 20 -1 20 -1 0 -16 -18 -14 -17 -14
12 -15 24 0 30 4 29 20 -2 26 -5 28 -35 19z"/>
<path d="M215 2202 c-9 -10 7 -22 30 -22 36 0 39 17 5 22 -17 3 -32 2 -35 0z"/>
<path d="M236 1996 c7 -18 34 -22 34 -4 0 6 -3 8 -7 5 -3 -4 -12 -2 -20 5 -11
8 -12 7 -7 -6z"/>
<path d="M278 1893 c7 -3 16 -2 19 1 4 3 -2 6 -13 5 -11 0 -14 -3 -6 -6z"/>
<path d="M278 1873 c6 -2 18 -2 25 0 6 3 1 5 -13 5 -14 0 -19 -2 -12 -5z"/>
<path d="M3603 485 c17 -19 17 -19 35 0 16 18 16 18 0 6 -15 -11 -21 -11 -35
0 -17 12 -17 12 0 -6z"/>
<path d="M262 3195 c0 -16 2 -22 5 -12 2 9 2 23 0 30 -3 6 -5 -1 -5 -18z"/>
<path d="M370 3205 c0 -9 5 -25 11 -36 9 -17 6 -21 -20 -30 -26 -9 -29 -14
-21 -30 7 -13 7 -19 0 -19 -5 0 -10 -7 -10 -15 0 -20 -42 -37 -52 -22 -4 6 -2
17 4 25 8 9 8 16 0 24 -9 9 -12 8 -12 -5 0 -11 -8 -17 -23 -17 -21 0 -23 -4
-19 -31 3 -22 1 -30 -7 -25 -6 4 -11 2 -11 -3 0 -14 53 -14 67 0 8 8 13 8 17
0 8 -12 402 -16 443 -5 16 4 22 13 21 33 0 14 2 44 6 66 4 25 3 35 -2 27 -7
-11 -11 -9 -15 8 -3 13 0 23 9 27 8 3 11 9 8 14 -3 5 -10 7 -15 4 -5 -4 -19 1
-31 9 -26 19 -87 21 -123 4 -18 -8 -25 -19 -25 -40 0 -15 -4 -28 -10 -28 -5 0
-10 -9 -10 -20 0 -11 -4 -20 -10 -20 -5 0 -10 -7 -10 -15 0 -8 5 -15 10 -15 6
0 10 -12 10 -27 0 -21 -3 -24 -9 -13 -6 8 -7 18 -5 22 3 5 0 7 -7 6 -8 -2 -12
17 -14 58 -2 52 0 61 14 60 10 -1 16 7 16 19 0 18 -8 20 -87 23 -75 2 -88 0
-88 -13z m343 -27 c3 -9 -9 -14 -42 -15 -44 -2 -45 -1 -21 12 31 18 56 19 63
3z"/>
<path d="M301 3174 c0 -11 3 -14 6 -6 3 7 2 16 -1 19 -3 4 -6 -2 -5 -13z"/>
<path d="M858 3123 c7 -3 16 -2 19 1 4 3 -2 6 -13 5 -11 0 -14 -3 -6 -6z"/>
<path d="M832 3079 c-23 -11 -48 -17 -55 -14 -7 4 -3 -1 7 -9 30 -24 60 -19
84 14 26 35 22 36 -36 9z"/>
<path d="M3654 2759 c-3 -6 -1 -16 5 -22 8 -8 11 -5 11 11 0 24 -5 28 -16 11z"/>
<path d="M3530 2621 c0 -6 4 -12 8 -15 5 -3 9 1 9 9 0 8 -4 15 -9 15 -4 0 -8
-4 -8 -9z"/>
<path d="M3360 2466 c0 -16 18 -31 27 -22 3 3 -2 12 -11 21 -14 14 -16 14 -16
1z"/>
<path d="M10 2130 c0 -5 5 -10 11 -10 5 0 7 5 4 10 -3 6 -8 10 -11 10 -2 0 -4
-4 -4 -10z"/>
<path d="M1175 2120 c4 -6 11 -8 16 -5 14 9 11 15 -7 15 -8 0 -12 -5 -9 -10z"/>
<path d="M1 2094 c0 -11 3 -14 6 -6 3 7 2 16 -1 19 -3 4 -6 -2 -5 -13z"/>
<path d="M1144 2078 c-3 -4 -2 -12 1 -18 6 -10 45 9 45 22 0 9 -40 6 -46 -4z"/>
<path d="M1100 1850 c0 -5 5 -10 11 -10 5 0 7 5 4 10 -3 6 -8 10 -11 10 -2 0
-4 -4 -4 -10z"/>
<path d="M3012 1590 c0 -14 2 -19 5 -12 2 6 2 18 0 25 -3 6 -5 1 -5 -13z"/>
<path d="M1360 1480 c0 -5 5 -10 11 -10 5 0 7 5 4 10 -3 6 -8 10 -11 10 -2 0
-4 -4 -4 -10z"/>
<path d="M2875 1410 c3 -5 11 -10 16 -10 6 0 7 5 4 10 -3 6 -11 10 -16 10 -6
0 -7 -4 -4 -10z"/>
<path d="M3896 1321 c-29 -32 -20 -66 24 -95 22 -14 40 -31 40 -38 0 -6 -8 -4
-19 6 -10 9 -25 14 -35 10 -22 -9 -20 -24 4 -24 11 0 20 -5 20 -11 0 -15 42
-59 58 -59 9 0 12 25 12 90 0 73 -3 90 -15 90 -8 0 -15 -5 -15 -12 0 -6 -9 -2
-20 10 -11 12 -20 26 -20 31 0 19 -18 20 -34 2z"/>
<path d="M3621 1264 c0 -11 3 -14 6 -6 3 7 2 16 -1 19 -3 4 -6 -2 -5 -13z"/>
<path d="M2681 1214 c0 -11 3 -14 6 -6 3 7 2 16 -1 19 -3 4 -6 -2 -5 -13z"/>
<path d="M2461 1144 c0 -11 3 -14 6 -6 3 7 2 16 -1 19 -3 4 -6 -2 -5 -13z"/>
<path d="M2431 1134 c0 -11 3 -14 6 -6 3 7 2 16 -1 19 -3 4 -6 -2 -5 -13z"/>
<path d="M3621 1044 c0 -11 3 -14 6 -6 3 7 2 16 -1 19 -3 4 -6 -2 -5 -13z"/>
<path d="M3936 1033 c-29 -27 -33 -35 -12 -27 8 3 23 1 33 -5 13 -7 14 -10 4
-11 -20 0 -5 -13 17 -15 25 -2 27 40 3 64 -18 18 -19 18 -45 -6z"/>
<path d="M3655 1040 c-3 -6 1 -7 9 -4 18 7 21 14 7 14 -6 0 -13 -4 -16 -10z"/>
<path d="M3633 989 c10 -13 17 -39 17 -58 l0 -35 20 20 c25 25 19 43 -22 74
l-31 23 16 -24z"/>
</g>
</svg>
